<?xml version="1.0" encoding="UTF-8"?>
<svg version="1.1" xmlns="http://www.w3.org/2000/svg" width="1280" height="1280">
<path d="M0 0 C422.4 0 844.8 0 1280 0 C1280 422.4 1280 844.8 1280 1280 C857.6 1280 435.2 1280 0 1280 C0 857.6 0 435.2 0 0 Z " fill="#1E1E1E" transform="translate(0,0)"/>
<path d="M0 0 C205.92 0 411.84 0 624 0 C624 422.4 624 844.8 624 1280 C418.08 1280 212.16 1280 0 1280 C0 1279.67 0 1279.34 0 1279 C1.17433594 1278.78085938 2.34867188 1278.56171875 3.55859375 1278.3359375 C40.20924746 1271.23211639 69.25284569 1252.52617152 96 1227 C96.87269531 1226.16855469 97.74539063 1225.33710937 98.64453125 1224.48046875 C103.66708301 1219.58135912 108.25441251 1214.47890828 112.62109375 1208.98828125 C114.25556393 1206.93512906 115.90306379 1204.91919581 117.59765625 1202.91796875 C132.418244 1185.21076012 144.89464127 1165.20423827 156 1145 C156.53544434 1144.03835938 157.07088867 1143.07671875 157.62255859 1142.0859375 C178.02143328 1105.39210374 193.68550403 1066.75093459 207 1027 C207.2341864 1026.30086487 207.4683728 1025.60172974 207.70965576 1024.88140869 C231.3553003 954.02238493 246.70142311 879.25286733 254.40625 804.984375 C254.57191216 803.39530083 254.57191216 803.39530083 254.74092102 801.77412415 C255.26512847 796.69503354 255.7649938 791.61512833 256.22729492 786.5300293 C256.40526044 784.70620029 256.58339262 782.88238753 256.76171875 781.05859375 C256.82818604 780.241026 256.89465332 779.42345825 256.96313477 778.58111572 C257.6521803 771.75852637 259.63550633 767.06264342 264.9375 762.4375 C265.948125 761.633125 266.95875 760.82875 268 760 C269.69088222 758.02043058 271.35830472 756.02054804 273 754 C274.66666667 752.33333333 276.33333333 750.66666667 278 749 C278.825 748.01 279.65 747.02 280.5 746 C283.53841959 742.3538965 286.63033208 739.04726232 290.40625 736.16015625 C293.02776931 733.97687285 294.93274689 731.767434 297 729.0625 C299.8159216 725.45410515 302.71621138 722.19503758 306 719 C307.7009816 717.02705914 309.34537072 715.01238696 311 713 C311.66 712.34 312.32 711.68 313 711 C315.77054506 707.85741032 318.47407536 704.66935863 321.0625 701.375 C323 699 323 699 325.3125 696.75 C328.22232335 693.77250634 330.66911483 690.61307258 333.15625 687.28125 C335 685 335 685 337.42578125 682.61328125 C341.0924026 678.89102073 343.97095111 674.68585131 347.01171875 670.44921875 C347.66785156 669.64097656 348.32398438 668.83273437 349 668 C349.66 668 350.32 668 351 668 C351 667.01 351 666.02 351 665 C352.64302953 663.31002677 354.31471312 661.64783606 356 660 C357.76288055 657.7326644 359.37924247 655.37035789 361 653 C363.30941167 649.62248543 365.50877967 646.48490238 368.4296875 643.6015625 C371.81908068 640.17096089 374.40762118 636.3460324 377.125 632.375 C378.16650952 630.86007706 379.21068479 629.34698256 380.2578125 627.8359375 C380.94061279 626.83892822 380.94061279 626.83892822 381.63720703 625.82177734 C382.96882414 624.04167579 384.38920689 622.52791511 386 621 C386 621.66 386 622.32 386 623 C386.99 623.33 387.98 623.66 389 624 C389 624.66 389 625.32 389 626 C389.99 626.33 390.98 626.66 392 627 C392 627.66 392 628.32 392 629 C392.5775 629.2475 393.155 629.495 393.75 629.75 C396.32939979 631.18299988 398.06121592 632.78424676 400 635 C400 635.66 400 636.32 400 637 C400.99 637.33 401.98 637.66 403 638 C403 638.66 403 639.32 403 640 C403.66 640 404.32 640 405 640 C405 640.66 405 641.32 405 642 C405.66 642 406.32 642 407 642 C408.48046875 643.50390625 408.48046875 643.50390625 410.1875 645.5625 C412.53279758 648.3253868 414.90829405 650.96679757 417.5 653.5 C420.51413582 656.46735323 423.29917333 659.57345292 426.05859375 662.77734375 C428.28804061 665.32976883 430.58001382 667.81887514 432.875 670.3125 C436.97199927 674.80498638 440.86120426 679.41907282 444.67578125 684.15234375 C446.6726002 686.59886646 448.71513743 688.99565509 450.78295898 691.38208008 C458.00773228 699.7555621 464.59370861 708.58991222 471.15087891 717.49072266 C472.33463309 719.09708989 473.52151835 720.70115741 474.71240234 722.30224609 C487.4156178 739.38457891 498.85831607 757.22505284 508.91357422 775.99169922 C509.92081527 777.85362391 510.95562691 779.69611533 512.00390625 781.53515625 C534.19287068 821.29598746 550.44820562 872.83414961 537.8984375 918.25390625 C533.87914989 930.89521407 528.08006575 941.52520262 520 952 C519.46761719 952.763125 518.93523438 953.52625 518.38671875 954.3125 C517.92910156 954.869375 517.47148438 955.42625 517 956 C516.34 956 515.68 956 515 956 C514.75765625 956.57363281 514.5153125 957.14726563 514.265625 957.73828125 C509.12886773 966.91785675 497.8469013 972.76340639 489 978 C488.41621582 978.34949707 487.83243164 978.69899414 487.23095703 979.05908203 C467.93028345 990.45939659 445.65417541 996.21054247 423.75 1000.1875 C422.91944092 1000.3424292 422.08888184 1000.4973584 421.2331543 1000.65698242 C402.54251673 1003.85179969 383.54374082 1004.40761852 364.625 1004.375 C363.53203613 1004.37512085 362.43907227 1004.3752417 361.31298828 1004.37536621 C339.69696551 1004.34171346 318.42591272 1002.78657816 297 1000 C296.27758118 999.90616028 295.55516235 999.81232056 294.81085205 999.71563721 C271.2496952 996.6248476 271.2496952 996.6248476 268 995 C268.04640625 995.88558594 268.0928125 996.77117188 268.140625 997.68359375 C268.53389627 1011.18122546 266.1649532 1023.89027051 260 1036 C268.91952214 1037.84855061 277.87502309 1038.77870919 286.9375 1039.5625 C287.67208435 1039.62692291 288.4066687 1039.69134583 289.16351318 1039.75772095 C294.10762364 1040.18976901 299.0531201 1040.60092609 304 1041 C304.94020996 1041.07637695 305.88041992 1041.15275391 306.84912109 1041.23144531 C312.564137 1041.66970981 318.26979325 1041.88464471 324 1042 C324.64308105 1042.0133136 325.28616211 1042.0266272 325.94873047 1042.04034424 C357.5735465 1042.66556591 388.95186682 1041.58580339 420 1035 C421.00289062 1034.79004395 422.00578125 1034.58008789 423.0390625 1034.36376953 C444.13476128 1029.85868621 464.02208324 1023.3087388 483 1013 C484.1653125 1012.38640625 485.330625 1011.7728125 486.53125 1011.140625 C516.05730596 995.0475945 540.6076752 968.85043318 550.7890625 936.33984375 C558.5943614 909.38116034 559.56537201 880.49918869 554 853 C553.80664062 852.0423877 553.61328125 851.08477539 553.4140625 850.09814453 C546.77718129 818.30154314 534.61113513 788.3943416 519 760 C518.57686523 759.22253418 518.15373047 758.44506836 517.71777344 757.64404297 C503.38724414 731.3134609 486.78150351 706.1884671 468.26074219 682.60791016 C466.94082099 680.92452498 465.63012883 679.23422547 464.3203125 677.54296875 C458.53087026 670.09042633 452.56348243 662.8174088 446.41796875 655.65625 C444.95988526 653.95314422 443.51053148 652.24290726 442.0625 650.53125 C436.13411019 643.54186815 430.05540085 636.72576232 423.8046875 630.0234375 C421.30729594 627.3434337 418.86753462 624.61635578 416.4375 621.875 C412.19236409 617.11482921 407.67557118 612.67846654 403.08984375 608.25 C401 606 401 606 401 604 C400.34 604 399.68 604 399 604 C400.64070196 599.09708361 403.4216451 595.16756883 406.3125 590.9375 C407.38764276 589.3430706 408.46182412 587.74799259 409.53515625 586.15234375 C410.09734863 585.31815918 410.65954102 584.48397461 411.23876953 583.62451172 C414.27305438 579.1029478 417.26730528 574.5557116 420.25 570 C420.82274658 569.13366943 421.39549316 568.26733887 421.9855957 567.37475586 C422.51113037 566.57046143 423.03666504 565.76616699 423.578125 564.9375 C424.04637695 564.22464844 424.51462891 563.51179687 424.99707031 562.77734375 C426.16381406 561.04982806 426.16381406 561.04982806 426 559 C426.66 559 427.32 559 428 559 C428 558.01 428 557.02 428 556 C428.66 556 429.32 556 430 556 C430.1124707 555.2687793 430.22494141 554.53755859 430.34082031 553.78417969 C431.02629083 550.88895531 431.99046416 548.97461827 433.546875 546.453125 C434.0625 545.6075 434.578125 544.761875 435.109375 543.890625 C435.65078125 543.01921875 436.1921875 542.1478125 436.75 541.25 C441.73996961 533.12906907 446.59292586 524.99137991 450.8125 516.4375 C451.31136719 515.43074219 451.81023438 514.42398438 452.32421875 513.38671875 C452.87722656 512.26910156 453.43023438 511.15148437 454 510 C455.37254597 507.24877149 456.74884512 504.49942474 458.125 501.75 C459.09611038 499.80802027 460.06703098 497.8659563 461.03588867 495.92285156 C461.67093985 494.65628709 462.31160077 493.39251742 462.95825195 492.13183594 C465.85958942 486.44100229 468.40899036 480.61443039 470.9375 474.75 C471.59999756 473.219198 471.59999756 473.219198 472.27587891 471.6574707 C476.66534855 461.49618088 480.92433237 451.29162999 485 441 C483.5459375 440.87044922 483.5459375 440.87044922 482.0625 440.73828125 C468.86335942 439.4153757 456.24337031 436.77139396 445.015625 429.33203125 C443.06841384 428.04521147 441.10591146 427.00078225 439 426 C438.731875 426.680625 438.46375 427.36125 438.1875 428.0625 C434.88033144 436.24339066 431.05102562 444.0692915 427.04833984 451.92675781 C426.01369177 453.97292256 424.99785342 456.02729889 423.98828125 458.0859375 C420.11495333 465.9663854 416.01800154 473.6367058 411.56640625 481.20703125 C409.91096236 483.95336884 409.91096236 483.95336884 409 487 C408.34 487 407.68 487 407 487 C406.78214844 487.97195313 406.56429687 488.94390625 406.33984375 489.9453125 C404.94877687 494.78792613 402.30678711 498.6934755 399.5625 502.875 C399.02898926 503.70290039 398.49547852 504.53080078 397.94580078 505.38378906 C396.84189095 507.09460471 395.73412396 508.80293751 394.62255859 510.50878906 C393.11020939 512.83078896 391.60934673 515.15967363 390.11328125 517.4921875 C384.17950341 526.73056174 378.14476334 535.90062771 372 545 C371.51934082 545.7120459 371.03868164 546.4240918 370.54345703 547.15771484 C369.0543872 549.35829879 367.55956613 551.55484975 366.0625 553.75 C365.60166016 554.43006104 365.14082031 555.11012207 364.66601562 555.81079102 C364.23095703 556.44557373 363.79589844 557.08035645 363.34765625 557.734375 C362.96617432 558.29350586 362.58469238 558.85263672 362.19165039 559.42871094 C360.91815221 561.10792305 359.52061525 562.54385247 358 564 C356.60066553 562.94211533 355.20571332 561.8784332 353.8125 560.8125 C353.03519531 560.22082031 352.25789062 559.62914062 351.45703125 559.01953125 C348.79004742 556.82743166 346.42206363 554.45909824 344 552 C337.74097765 546.07738903 331.3989781 540.39587041 324.61328125 535.08203125 C321.60167828 532.6826525 318.675565 530.19007069 315.75 527.6875 C308.98748878 521.92432544 302.0288115 516.4334366 295 511 C294.44812012 510.57332031 293.89624023 510.14664062 293.32763672 509.70703125 C290.62986666 507.62381113 287.92807452 505.54593285 285.22265625 503.47265625 C283.03842951 501.79876907 280.85914716 500.11873771 278.68359375 498.43359375 C277.58085998 497.58056003 276.47799638 496.72769413 275.375 495.875 C274.84076416 495.46161377 274.30652832 495.04822754 273.75610352 494.62231445 C269.3374504 491.22049773 264.81587602 487.97842987 260.2421875 484.7890625 C255.75826623 481.21129954 254.63010245 478.28992557 253.94947815 472.73316956 C253.85915817 471.89696579 253.7688382 471.06076202 253.67578125 470.19921875 C253.45420964 468.36082681 253.23252457 466.52244855 253.01074219 464.68408203 C252.8977478 463.70940979 252.78475342 462.73473755 252.66833496 461.73052979 C245.63526366 401.5851034 234.13466795 341.20692667 216.51371765 283.22377014 C215 278.20405617 215 278.20405617 215 276 C214.33097656 276.38671875 213.66195313 276.7734375 212.97265625 277.171875 C203.52914608 282.29291944 192.85339753 286 182 286 C182.3700415 287.16728638 182.3700415 287.16728638 182.74755859 288.3581543 C194.61238276 326.27646075 202.0545088 365.84160057 208.4375 405 C208.59903564 405.98733124 208.76057129 406.97466248 208.92700195 407.99191284 C211.3032663 422.6197562 213.2479674 437.28502719 215 452 C208.24040631 448.15581375 201.66610991 444.22182139 195.3515625 439.67578125 C189.72138778 435.66358033 183.88370905 432.09809579 177.91796875 428.61914062 C174.26282156 426.45581238 170.77886074 424.15364384 167.328125 421.67578125 C161.45538874 417.52234377 155.26691232 414.01929791 149 410.5 C147.13666912 409.44614206 145.2743572 408.39049798 143.4120636 407.33480835 C142.14342165 406.61582195 140.87444872 405.89741926 139.60514832 405.17959595 C133.31597047 401.62109686 127.06439305 397.99852095 120.8125 394.375 C95.58601008 379.80075603 70.21367902 365.69521855 43.83984375 353.29296875 C39.56781267 351.28038604 35.33911571 349.19319603 31.125 347.0625 C9.87622826 336.34138024 9.87622826 336.34138024 -12 327 C-9.24634573 324.9019777 -6.44432633 322.91788789 -3.5625 321 C-2.82128906 320.505 -2.08007812 320.01 -1.31640625 319.5 C6.23517394 314.60993795 14.12058712 310.19962733 21.9375 305.75 C24.64817806 304.20104111 27.32340243 302.60674232 30 301 C36.13728091 297.38277578 42.29223854 293.80691136 48.53515625 290.375 C51.04057671 288.9773645 53.52355228 287.54329239 56.00634766 286.10595703 C62.88110372 282.13424746 69.85984704 278.47774691 77 275 C79.00098961 274.00198167 81.0010995 273.00219599 83 272 C87 270 91 268 95 266 C95.66128906 265.66355469 96.32257813 265.32710938 97.00390625 264.98046875 C107.49621406 259.67217766 118.14666346 254.62698295 128.921875 249.91796875 C131.33751218 248.85091097 133.72899966 247.73542706 136.125 246.625 C141.77168305 244.05042843 147.52019923 241.75797579 153.2890625 239.4765625 C156.64474034 238.14135595 159.98163183 236.77071083 163.3125 235.375 C181.52306766 227.75480257 200.26479054 220.46618674 219.453125 215.703125 C221.69100846 215.08530441 223.8581331 214.38108927 226.0546875 213.6328125 C244.94125329 207.28034095 264.37197145 203.23764191 284 200 C285.14178711 199.80776855 286.28357422 199.61553711 287.45996094 199.41748047 C301.79310042 197.03131328 315.94111952 195.30912822 330.47705078 195.046875 C332.91168143 195.00164091 335.34366678 194.92431866 337.77734375 194.84375 C370.40113773 194.01895287 410.24877059 201.66732903 434.875 224.6875 C435.57625 225.450625 436.2775 226.21375 437 227 C437.763125 227.721875 438.52625 228.44375 439.3125 229.1875 C441 231 441 231 441 233 C441.5775 233.20625 442.155 233.4125 442.75 233.625 C445.87972691 235.53761089 447.09059251 237.87551502 449 241 C449.391875 241.60070312 449.78375 242.20140625 450.1875 242.8203125 C460.62237683 258.9291536 467.3012078 278.60216792 467.0625 297.9375 C467.05347656 298.89527344 467.04445313 299.85304688 467.03515625 300.83984375 C467.01775391 301.90912109 467.01775391 301.90912109 467 303 C468.010625 302.67 469.02125 302.34 470.0625 302 C482.07137401 299.06637348 494.18475538 301.39164114 506 304 C505.37737723 300.68704871 504.75145763 297.3747281 504.125 294.0625 C503.95097656 293.13630859 503.77695313 292.21011719 503.59765625 291.25585938 C501.289598 278.83430519 501.289598 278.83430519 497 267 C496.00728668 264.51424585 495.03283329 262.02190892 494.0625 259.52734375 C489.38277666 248.39579596 483.51432684 238.02402029 475.15234375 229.3046875 C473.07014241 227.07510712 471.29535151 224.77540715 469.5 222.3125 C466.41549629 218.21918213 462.89526163 215.35675404 458.72265625 212.41015625 C458.15417969 211.94480469 457.58570313 211.47945312 457 211 C457 210.34 457 209.68 457 209 C456.01 209 455.02 209 454 209 C452.66666667 207.66666667 451.33333333 206.33333333 450 205 C448.78942025 204.26034908 447.55871076 203.55289788 446.3125 202.875 C443 201 443 201 442 199 C440.40422503 198.58371088 438.80815659 198.16852598 437.2109375 197.7578125 C434.51922794 196.8352124 432.22137064 195.53417696 429.75 194.125 C424.31682072 191.08035543 418.91211147 188.9255732 413 187 C411.75992188 186.5875 410.51984375 186.175 409.2421875 185.75 C337.61591781 162.3259906 255.60699775 179.04070861 186 202 C185.16597656 202.27344238 184.33195312 202.54688477 183.47265625 202.82861328 C173.59580211 206.0718916 163.72698495 209.32756691 154 213 C153.236875 213.28488281 152.47375 213.56976563 151.6875 213.86328125 C137.85625679 219.00901612 137.85625679 219.00901612 124.33984375 224.91796875 C121.07024136 226.42995516 117.72584323 227.72748048 114.375 229.046875 C111.43406466 230.22711879 108.54801309 231.50863518 105.66015625 232.8125 C102.91005341 234.04015237 100.14450536 235.2296573 97.37817383 236.42016602 C90.38859582 239.43953815 83.553168 242.6614293 76.765625 246.1171875 C72.36774952 248.33989754 67.90009169 250.41126772 63.4375 252.5 C56.83680269 255.59894041 50.38761258 258.85529511 44 262.375 C40.88971404 264.05973823 37.73850097 265.63063678 34.5625 267.1875 C30.45747268 269.21573952 26.75990782 271.40387317 23 274 C21.00892752 275.01765927 19.00781177 276.01577854 17 277 C9.89510088 280.81480611 2.95664232 284.9237742 -4 289 C-6.04156338 290.18767756 -8.08322873 291.37517986 -10.125 292.5625 C-19.93692459 298.27782703 -19.93692459 298.27782703 -29.55859375 304.3046875 C-30.17943848 304.7083252 -30.8002832 305.11196289 -31.43994141 305.52783203 C-32.6598509 306.32403372 -33.87712234 307.12429672 -35.09130859 307.92919922 C-41.64854156 312.21640466 -41.64854156 312.21640466 -45 313 C-47.953125 312.09375 -47.953125 312.09375 -51.25 310.5 C-52.48986351 309.9233619 -53.73217253 309.35196012 -54.9765625 308.78515625 C-55.95544434 308.33873779 -55.95544434 308.33873779 -56.95410156 307.88330078 C-61.08178426 306.10120579 -65.3516073 304.70237979 -69.61035156 303.26953125 C-73.72248441 301.86588021 -77.7220441 300.29548182 -81.72265625 298.59765625 C-87.9976357 295.9537653 -94.36810965 293.69262938 -100.8125 291.5 C-101.95686523 291.1076416 -103.10123047 290.7152832 -104.28027344 290.31103516 C-107.51860386 289.20265341 -110.75884389 288.10008683 -114 287 C-114.75780762 286.74186523 -115.51561523 286.48373047 -116.29638672 286.21777344 C-120.52106004 284.78098246 -124.75751507 283.38322686 -129 282 C-129.72316406 281.7613623 -130.44632813 281.52272461 -131.19140625 281.27685547 C-143.60797049 277.18828747 -156.12010268 273.46720461 -168.6875 269.875 C-169.44508606 269.65815552 -170.20267212 269.44131104 -170.98321533 269.21789551 C-178.1128262 267.18108224 -185.24130927 265.16137903 -192.43359375 263.35546875 C-193.33311768 263.12939941 -194.2326416 262.90333008 -195.15942383 262.67041016 C-196.7486535 262.27857117 -198.34083284 261.89841874 -199.9362793 261.53271484 C-201.9765625 261.03515625 -201.9765625 261.03515625 -205 260 C-206.33908655 255.98274035 -205.0449232 253.35730424 -203.7109375 249.51953125 C-203.32930954 248.39128685 -203.32930954 248.39128685 -202.93997192 247.24024963 C-202.09608618 244.76036716 -201.23690101 242.28617483 -200.375 239.8125 C-199.93450317 238.53756683 -199.93450317 238.53756683 -199.48510742 237.23687744 C-181.86348706 186.32347593 -159.56531552 135.52842924 -126 93 C-125.23300781 92.0203125 -124.46601562 91.040625 -123.67578125 90.03125 C-117.80471767 82.69505565 -111.45433643 75.82076073 -105 69 C-104.36191406 68.319375 -103.72382812 67.63875 -103.06640625 66.9375 C-81.02650612 44.10479771 -50.95307968 27.59180272 -18.984375 26 C12.40083205 26 40.07736281 39.18092466 63 60 C64.35544922 61.19302734 64.35544922 61.19302734 65.73828125 62.41015625 C74.69630419 70.33508398 82.55680434 78.63558988 90 88 C90.86392072 89.06173742 91.72852306 90.12292052 92.59375 91.18359375 C106.78825236 108.73311352 118.27568215 128.04079792 129.0625 147.8125 C129.94023071 149.41665771 129.94023071 149.41665771 130.83569336 151.05322266 C131.37589111 152.05272949 131.91608887 153.05223633 132.47265625 154.08203125 C132.96000244 154.98155518 133.44734863 155.8810791 133.94946289 156.80786133 C135 159 135 159 135 161 C135.53367187 160.69707031 136.06734375 160.39414063 136.6171875 160.08203125 C140.71046515 157.78044779 144.82612064 155.52736099 149 153.375 C149.7425 152.99085938 150.485 152.60671875 151.25 152.2109375 C155.07582893 150.52626851 159.02073105 149.27115536 163 148 C142.15233183 106.82232585 114.14697839 64.35033263 77 36 C76.4529541 35.57654297 75.9059082 35.15308594 75.34228516 34.71679688 C53.01896034 17.50213863 28.12951617 5.07057793 0 1 C0 0.67 0 0.34 0 0 Z " fill="#1E1E1E" transform="translate(656,0)"/>
<path d="M0 0 C0.70520782 0.00054382 1.41041565 0.00108765 2.13699341 0.00164795 C13.65607129 0.04240613 24.4490788 0.97272482 35.5 4.375 C36.21607422 4.58930664 36.93214844 4.80361328 37.66992188 5.02441406 C73.99509767 16.15527747 106.74831983 41.91469541 130.15625 71.421875 C131.77664748 73.46357583 133.41062291 75.46554992 135.09375 77.453125 C153.19713639 99.07820064 168.3561891 123.96832396 180.5 149.375 C179.53320312 149.66632813 178.56640625 149.95765625 177.5703125 150.2578125 C170.33104863 152.5122223 163.90663491 154.88143464 157.55078125 159.140625 C155.49555847 160.37767338 153.81885413 160.85116338 151.5 161.375 C151.2097998 160.7987085 150.91959961 160.22241699 150.62060547 159.62866211 C124.47402916 107.97211294 88.07791127 51.91588368 30.63818359 32.07080078 C5.69475652 23.95379151 -22.14107392 26.890313 -45.57226562 38.37792969 C-57.70553004 44.65354416 -68.41132316 52.21089192 -78.5 61.375 C-79.87285156 62.58542969 -79.87285156 62.58542969 -81.2734375 63.8203125 C-89.87922666 71.44405966 -97.32992155 79.38085359 -104.5 88.375 C-105.36540948 89.43788769 -106.23130693 90.50037823 -107.09765625 91.5625 C-142.56990457 135.4296325 -165.14617885 188.87305039 -183.3125 241.8125 C-183.57774475 242.58532318 -183.8429895 243.35814636 -184.11627197 244.15438843 C-187.13128419 251.62778812 -187.13128419 251.62778812 -188.5 259.375 C-187.3032666 259.69662109 -186.1065332 260.01824219 -184.87353516 260.34960938 C-140.57961808 272.26932591 -96.58802415 285.20204837 -54 302.375 C-45.25167545 305.90225 -36.45045301 309.39151566 -27.5 312.375 C-24.57579411 310.91852835 -24.57579411 310.91852835 -21.4375 308.8125 C-20.25944084 308.06068644 -19.08105251 307.30938844 -17.90234375 306.55859375 C-17.03198486 305.99760986 -17.03198486 305.99760986 -16.14404297 305.42529297 C-13.95684338 304.02800567 -11.73253687 302.69839214 -9.5 301.375 C-5.62084035 299.06011936 -1.77693135 296.6926805 2.0625 294.3125 C7.13524768 291.18301406 12.26887048 288.22834337 17.5 285.375 C18.66854613 284.7116332 19.83530206 284.04510019 21 283.375 C25.14260017 280.99825474 29.32245823 278.68958395 33.5 276.375 C34.221875 275.9728125 34.94375 275.570625 35.6875 275.15625 C37.9563303 273.89218741 40.22769967 272.63281369 42.5 271.375 C43.35464844 270.900625 44.20929687 270.42625 45.08984375 269.9375 C50.7133575 266.83932313 56.39681391 263.91075196 62.15234375 261.06640625 C65.30697784 259.47252461 68.42383698 257.82321492 71.53808594 256.15258789 C80.7147589 251.23174815 90.03291951 246.70806732 99.5 242.375 C100.50804687 241.91351563 101.51609375 241.45203125 102.5546875 240.9765625 C104.31615647 240.17496648 106.07912069 239.37664595 107.84375 238.58203125 C109.74569986 237.71776286 111.64082023 236.83840286 113.53125 235.94921875 C120.53349469 232.66054315 127.59283034 229.67581284 134.796875 226.8671875 C137.49863985 225.77850166 140.14160307 224.64847168 142.79296875 223.44921875 C147.80819062 221.20009693 152.91871835 219.24560838 158.0625 217.3125 C158.95646484 216.97412109 159.85042969 216.63574219 160.77148438 216.28710938 C163.34647883 215.31324534 165.92289588 214.34326578 168.5 213.375 C169.2420166 213.09599854 169.9840332 212.81699707 170.74853516 212.52954102 C221.61300099 193.42694875 275.96595995 178.01548218 330.5 175.375 C331.40427734 175.32069824 332.30855469 175.26639648 333.24023438 175.21044922 C377.4497524 172.58891708 434.96112541 176.82849112 470.5 207.375 C470.5 208.035 470.5 208.695 470.5 209.375 C471.49 209.375 472.48 209.375 473.5 209.375 C475.21230248 210.99474559 476.87163262 212.6708946 478.5 214.375 C479.4075 215.07625 480.315 215.7775 481.25 216.5 C486.05320387 220.42652655 489.67787779 225.53052691 493.5 230.375 C494.45132812 231.54482422 494.45132812 231.54482422 495.421875 232.73828125 C508.05455971 248.4732403 516.15318343 267.50885617 520.1875 287.1875 C520.39955078 288.18458984 520.61160156 289.18167969 520.83007812 290.20898438 C521.82295662 294.91654392 522.76519155 299.6189321 523.5 304.375 C519.75111844 305.62462719 518.05502566 304.91481823 514.25 303.9375 C503.94158714 301.60049957 493.92432776 301.95454215 483.5 303.375 C483.40203125 302.116875 483.3040625 300.85875 483.203125 299.5625 C481.49921146 279.39093752 477.67671841 254.25743301 462.5 239.375 C462.04625 238.59125 461.5925 237.8075 461.125 237 C457.90655933 231.80098046 453.15841753 228.2404954 448.5 224.375 C447.90058594 223.74464844 447.30117187 223.11429688 446.68359375 222.46484375 C428.90442455 205.44900203 399.97096622 200.1766219 376.5 197.375 C375.79198242 197.28001221 375.08396484 197.18502441 374.35449219 197.0871582 C334.29966956 192.01035835 290.91806173 201.21934976 252.45947266 211.8359375 C250.70884344 212.31754594 248.9542679 212.7847562 247.19921875 213.25 C241.55108311 214.74991984 236.03746198 216.51218283 230.5 218.375 C229.02373626 218.86418379 227.5471785 219.35248125 226.0703125 219.83984375 C217.8337324 222.56527678 209.62673688 225.33446021 201.5 228.375 C200.20966232 228.85423911 198.91929548 229.33339972 197.62890625 229.8125 C183.8384132 234.94546599 170.14749428 240.33042174 156.73046875 246.3828125 C152.46877436 248.27855747 148.16983013 250.08958155 143.87890625 251.91796875 C134.2338209 256.05984469 124.8493028 260.60706287 115.5 265.375 C113.50095511 266.37690794 111.50114547 267.37729423 109.5 268.375 C108.51 268.87 107.52 269.365 106.5 269.875 C105.51 270.37 104.52 270.865 103.5 271.375 C102.56671875 271.84292969 101.6334375 272.31085938 100.671875 272.79296875 C98.6656523 273.79360938 96.6556725 274.78678267 94.640625 275.76953125 C88.85695131 278.60665767 83.29638847 281.62829893 77.80859375 285 C75.05457715 286.64029415 72.22761818 288.05426649 69.34765625 289.45703125 C66.32098198 290.96077005 63.41481145 292.66822828 60.5 294.375 C59.53320312 294.93703125 58.56640625 295.4990625 57.5703125 296.078125 C51.7110881 299.48416993 51.7110881 299.48416993 45.88671875 302.94921875 C43.75815623 304.22078229 41.61230112 305.43493542 39.4375 306.625 C31.62352087 310.95012892 23.90834964 315.38241655 16.5 320.375 C13.18203653 322.4009686 9.8440159 324.39238188 6.5 326.375 C16.38717273 331.45676114 26.40540526 336.21948211 36.5 340.875 C46.59650021 345.53387447 56.59269362 350.32870423 66.5 355.375 C67.73484401 355.98995692 68.97053916 356.60320738 70.20703125 357.21484375 C87.22916676 365.63666502 104.02585002 374.36811935 120.38354492 384.02636719 C127.46958784 388.20814423 134.61756875 392.25885801 141.8125 396.25 C150.95096475 401.33335237 160.00151796 406.54912412 169 411.875 C170.11544189 412.5335498 171.23088379 413.19209961 172.38012695 413.87060547 C177.8625625 417.13016184 183.24823835 420.47616981 188.52929688 424.05273438 C191.30358488 425.91417439 194.14279211 427.64335886 197 429.375 C202.2549819 432.59109747 207.39676094 435.92558841 212.5 439.375 C215.12302311 441.12796806 217.7491328 442.87629615 220.375 444.625 C221.66411126 445.48430185 222.95317647 446.3436728 224.2421875 447.203125 C225.31726563 447.91984375 226.39234375 448.6365625 227.5 449.375 C228.49 450.035 229.48 450.695 230.5 451.375 C225.14363914 411.73742244 218.59059903 372.6040789 209.875 333.5625 C209.65106567 332.55622559 209.42713135 331.54995117 209.19641113 330.51318359 C206.54428143 318.65293366 203.65173057 306.89291223 200.35995483 295.19267273 C200.11693634 294.32640762 199.87391785 293.46014252 199.62353516 292.56762695 C199.29780014 291.4221917 199.29780014 291.4221917 198.96548462 290.25361633 C198.5 288.375 198.5 288.375 198.5 286.375 C199.08378418 286.24971924 199.66756836 286.12443848 200.26904297 285.99536133 C214.57290824 283.09856852 214.57290824 283.09856852 227.85546875 277.29296875 C229.5 276.375 229.5 276.375 231.5 276.375 C236.16277214 291.27852677 240.47516482 306.22189035 244.25 321.375 C244.50123627 322.38035797 244.75247253 323.38571594 245.01132202 324.42153931 C255.84872315 368.02838007 264.46312199 412.44835596 269.671875 457.09765625 C269.76114761 457.85441147 269.85042023 458.61116669 269.94239807 459.39085388 C270.35051897 462.87595298 270.73577614 466.3594569 271.08374023 469.85131836 C271.21466064 471.0450708 271.34558105 472.23882324 271.48046875 473.46875 C271.58254639 474.49677734 271.68462402 475.52480469 271.78979492 476.58398438 C273.30505742 482.53877326 277.53912296 485.23661204 282.5 488.375 C284.57532568 489.9414846 286.63738852 491.52565838 288.6875 493.125 C292.65441094 496.20887341 296.64898723 499.21985508 300.75 502.125 C307.97767543 507.33146605 314.74528204 513.10910565 321.59228516 518.79931641 C323.95465782 520.75052618 326.347174 522.66140602 328.75 524.5625 C333.11248718 528.02878863 337.3606338 531.61935006 341.60327148 535.23022461 C345.14013849 538.2368486 348.71038275 541.19640883 352.3125 544.125 C355.6248408 546.83024021 358.93027502 549.54100155 362.1875 552.3125 C362.83074219 552.85777344 363.47398437 553.40304687 364.13671875 553.96484375 C365.5 555.375 365.5 555.375 365.5 557.375 C366.056875 557.6225 366.61375 557.87 367.1875 558.125 C369.89971127 559.59106015 372.13587365 561.40489471 374.5 563.375 C379.80432521 556.78265789 384.59311754 549.93602 389.25 542.875 C389.9510083 541.81692139 390.6520166 540.75884277 391.37426758 539.66870117 C393.42128116 536.57412727 395.46211397 533.47559051 397.5 530.375 C398.02706543 529.57400879 398.55413086 528.77301758 399.09716797 527.94775391 C404.70094388 519.41294873 410.15814976 510.78729716 415.5625 502.125 C416.12348389 501.23079346 416.68446777 500.33658691 417.26245117 499.4152832 C417.78556885 498.5718335 418.30868652 497.72838379 418.84765625 496.859375 C419.54387085 495.74127441 419.54387085 495.74127441 420.25415039 494.60058594 C421.56713675 492.2550669 422.55522186 489.88887851 423.5 487.375 C424.16 487.375 424.82 487.375 425.5 487.375 C425.56058594 486.73175781 425.62117188 486.08851563 425.68359375 485.42578125 C426.86623107 481.00645233 429.20727257 477.45762364 431.5625 473.5625 C436.62128004 465.01083095 441.22701483 456.34218711 445.5 447.375 C445.81984863 446.70388184 446.13969727 446.03276367 446.46923828 445.34130859 C449.603379 438.73773235 452.64536292 432.10439972 455.5 425.375 C456.30050781 425.82939453 456.30050781 425.82939453 457.1171875 426.29296875 C458.70582647 427.18623461 460.30013173 428.06946073 461.8984375 428.9453125 C463.51935298 429.83608587 465.13078893 430.74462018 466.7265625 431.6796875 C471.95310464 434.57134827 477.16173165 436.24674963 482.9375 437.625 C483.61683594 437.78814697 484.29617188 437.95129395 484.99609375 438.11938477 C490.78498436 439.40694696 496.59261084 439.93381264 502.5 440.375 C498.26118943 451.91408153 493.80807821 463.28720894 488.64672852 474.44824219 C486.81178946 478.42079931 485.06958508 482.39928258 483.46875 486.47265625 C481.75929253 490.80291836 479.85504184 494.97437169 477.75 499.125 C477.24218994 500.13590698 477.24218994 500.13590698 476.72412109 501.16723633 C473.74519165 507.03110319 470.50515273 512.72283871 467.1640625 518.38671875 C465.50416651 521.19987695 465.50416651 521.19987695 464.62475586 523.66870117 C463.29615421 526.86547766 461.62497047 529.69772815 459.83984375 532.6640625 C459.4899086 533.24916595 459.13997345 533.83426941 458.7794342 534.43710327 C457.66888181 536.29348201 456.55368474 538.14700317 455.4375 540 C454.31800677 541.86028834 453.19963801 543.72120541 452.08485413 545.58432007 C451.0763245 547.26970906 450.06353817 548.95254867 449.05053711 550.63525391 C447.40632934 553.33593017 447.40632934 553.33593017 446.5 556.375 C445.84 556.375 445.18 556.375 444.5 556.375 C444.38479004 557.11637207 444.26958008 557.85774414 444.15087891 558.62158203 C443.49241489 561.40708733 442.66232538 563.06710836 441.0859375 565.4296875 C440.57893311 566.19893555 440.07192871 566.96818359 439.54956055 567.76074219 C438.99695557 568.58219727 438.44435059 569.40365234 437.875 570.25 C436.70162535 572.02330679 435.52845716 573.7967502 434.35546875 575.5703125 C433.73333496 576.50520508 433.11120117 577.44009766 432.47021484 578.40332031 C429.0099207 583.62249012 425.60278769 588.87631969 422.1875 594.125 C420.90003666 596.09915211 419.61230223 598.07312746 418.32421875 600.046875 C417.77854248 600.8831543 417.23286621 601.71943359 416.6706543 602.58105469 C416.28433838 603.17305664 415.89802246 603.76505859 415.5 604.375 C416.16 604.375 416.82 604.375 417.5 604.375 C418.8046875 605.703125 418.8046875 605.703125 420.375 607.625 C423.57891368 611.40535003 426.97338414 614.90139541 430.5 618.375 C434.38432352 622.21586672 438.12560662 626.09879684 441.66796875 630.26171875 C443.54894563 632.43145967 445.48928109 634.53970243 447.44287109 636.64404297 C452.20204051 641.77317168 456.73663961 647.01464495 461.125 652.46875 C463.83468777 655.78455214 466.63213931 659.01529716 469.4375 662.25 C474.62155654 668.25263487 479.50264009 674.43576008 484.27783203 680.76611328 C485.51496242 682.39469683 486.76817946 684.009499 488.02734375 685.62109375 C493.80120406 693.01954678 499.25182844 700.59153903 504.5 708.375 C504.97228027 709.07318848 505.44456055 709.77137695 505.93115234 710.49072266 C512.34595186 719.98809229 518.61441747 729.53866227 524.5 739.375 C524.87833984 740.00164551 525.25667969 740.62829102 525.64648438 741.27392578 C552.48171338 785.77243958 575.03907625 836.76942627 574.8125 889.625 C574.81100952 890.29554413 574.80951904 890.96608826 574.8079834 891.6569519 C574.6711408 926.08460978 563.52389703 959.21478312 539.5 984.375 C538.61699219 985.33664062 537.73398438 986.29828125 536.82421875 987.2890625 C495.97605386 1030.25528038 429.88579045 1041.8940106 373.22949219 1043.43682861 C345.79560174 1044.04303553 318.6695531 1042.75495251 291.375 1039.875 C290.23579102 1039.75664795 289.09658203 1039.6382959 287.92285156 1039.51635742 C286.87323242 1039.39752197 285.82361328 1039.27868652 284.7421875 1039.15625 C283.36329346 1039.0025293 283.36329346 1039.0025293 281.95654297 1038.84570312 C279.4894829 1038.3729848 277.6737266 1037.61132684 275.5 1036.375 C275.82613281 1035.67117188 276.15226563 1034.96734375 276.48828125 1034.2421875 C281.0881979 1023.84827554 283.39934273 1013.77024425 284.078125 1002.42578125 C284.12018066 1001.74277954 284.16223633 1001.05977783 284.20556641 1000.3560791 C284.30728206 998.69593435 284.4041585 997.03549423 284.5 995.375 C285.43755127 995.51075439 286.37510254 995.64650879 287.34106445 995.78637695 C335.99342851 1002.78459971 386.62206685 1008.52789287 435.5 1000.375 C436.57233887 1000.19807617 437.64467773 1000.02115234 438.74951172 999.83886719 C452.69531635 997.45591872 466.17814742 994.13879753 479.5 989.375 C480.47622314 989.033479 480.47622314 989.033479 481.47216797 988.68505859 C496.3557456 983.40749275 510.65074404 975.8732193 522.5 965.375 C523.17933594 964.82585938 523.85867188 964.27671875 524.55859375 963.7109375 C544.58798182 947.2345208 554.66808664 922.80943669 557.18359375 897.453125 C559.72778394 867.15479164 551.8414981 837.27572791 540.5 809.375 C540.22720215 808.69856445 539.9544043 808.02212891 539.67333984 807.32519531 C535.03593527 795.95732475 529.40777912 785.12794511 523.5 774.375 C523.08266602 773.61348633 522.66533203 772.85197266 522.23535156 772.06738281 C507.78949191 745.92138548 490.18202778 721.63617551 471.5 698.375 C470.76652344 697.45847656 470.03304688 696.54195312 469.27734375 695.59765625 C458.12079044 681.80888527 446.25565506 668.61188581 434.25 655.5625 C433.7542749 655.02286621 433.2585498 654.48323242 432.74780273 653.92724609 C430.43082667 651.41728616 428.10003005 648.98869023 425.640625 646.61328125 C423.5 644.375 423.5 644.375 423.5 642.375 C422.84 642.375 422.18 642.375 421.5 642.375 C421.5 641.715 421.5 641.055 421.5 640.375 C420.84 640.375 420.18 640.375 419.5 640.375 C418.01953125 638.8359375 418.01953125 638.8359375 416.3125 636.75 C413.45596878 633.38060514 410.49763597 630.48755831 407.078125 627.69921875 C405.45647299 626.3384761 403.97608143 624.89109569 402.5 623.375 C397.34394076 628.13151221 393.6847884 633.69153075 389.78515625 639.48828125 C389.02138672 640.60009766 389.02138672 640.60009766 388.2421875 641.734375 C387.55938721 642.74709473 387.55938721 642.74709473 386.86279297 643.78027344 C385.5 645.375 385.5 645.375 382.5 646.375 C381.42017234 648.23331582 381.42017234 648.23331582 380.5 650.375 C378.75707318 653.02328832 376.87169132 655.56653822 375 658.125 C374.50113281 658.82238281 374.00226562 659.51976562 373.48828125 660.23828125 C373.00746094 660.89699219 372.52664063 661.55570313 372.03125 662.234375 C371.59361328 662.83733398 371.15597656 663.44029297 370.70507812 664.06152344 C370.30740234 664.4949707 369.90972656 664.92841797 369.5 665.375 C368.84 665.375 368.18 665.375 367.5 665.375 C367.5 666.365 367.5 667.355 367.5 668.375 C365.86816532 670.07578544 364.19498905 671.73714541 362.5 673.375 C360.96660311 675.34951107 359.4667418 677.35048315 358 679.375 C355.08094217 683.40412207 352.03742984 686.88292183 348.5 690.375 C347.3055046 691.85293499 346.13674085 693.35219622 345 694.875 C342.37112719 698.31972988 339.56531967 701.30968033 336.5 704.375 C335.3182421 705.86313957 334.15285668 707.36436021 333 708.875 C330.37293539 712.31520365 327.6049617 715.35174782 324.5 718.375 C323.675 719.365 322.85 720.355 322 721.375 C319.63139261 724.21732887 317.11399777 726.76100223 314.5 729.375 C313.675 730.365 312.85 731.355 312 732.375 C308.96199241 736.02060911 305.87225115 739.32799019 302.09375 742.2109375 C299.45675833 744.41107814 297.56670056 746.64162184 295.5 749.375 C292.78895305 752.96057823 290.07333601 755.64859103 286.5 758.375 C284.79115995 759.99839805 283.12553283 761.66819053 281.5 763.375 C280.613125 764.2 279.72625 765.025 278.8125 765.875 C272.90991384 773.18524899 273.91353214 787.23889213 272.90356445 796.41381836 C266.58852077 853.71536466 256.87160868 910.52378722 242.5 966.375 C242.30317627 967.14060242 242.10635254 967.90620483 241.90356445 968.69500732 C229.71701792 1015.88189125 213.99871511 1062.14166624 193.5 1106.375 C192.81623291 1107.86797607 192.81623291 1107.86797607 192.11865234 1109.39111328 C185.75878224 1123.24826099 178.69324185 1136.57768696 171.02392578 1149.75341797 C169.61691918 1152.17386605 168.22598165 1154.60271797 166.83984375 1157.03515625 C155.08851816 1177.52234691 141.03549672 1196.6033333 125.5 1214.375 C124.37851563 1215.66470703 124.37851563 1215.66470703 123.234375 1216.98046875 C114.08894397 1227.32664882 104.46047174 1236.94832292 93.5 1245.375 C92.95005371 1245.80135742 92.40010742 1246.22771484 91.83349609 1246.66699219 C65.2073091 1267.19642529 35.05005723 1280.84893479 1 1280.75 C0.29479218 1280.74945618 -0.41041565 1280.74891235 -1.13699341 1280.74835205 C-12.65607129 1280.70759387 -23.4490788 1279.77727518 -34.5 1276.375 C-35.21607422 1276.16069336 -35.93214844 1275.94638672 -36.66992188 1275.72558594 C-57.12924778 1269.45638126 -75.83345695 1258.76143391 -92.5 1245.4375 C-93.20125 1244.88167236 -93.9025 1244.32584473 -94.625 1243.75317383 C-95.264375 1243.22747803 -95.90375 1242.70178223 -96.5625 1242.16015625 C-97.41521484 1241.46224976 -97.41521484 1241.46224976 -98.28515625 1240.75024414 C-99.5 1239.375 -99.5 1239.375 -99.5 1236.375 C-97.375 1234.796875 -97.375 1234.796875 -94.5 1233.125 C-85.78460788 1228.01455077 -85.78460788 1228.01455077 -79.5 1220.375 C-75.78958279 1221.99665503 -72.9497692 1224.33626231 -69.8125 1226.875 C-46.04134746 1245.49170214 -17.64182654 1256.0797019 12.79882812 1252.41040039 C38.50226474 1248.88361137 60.5132674 1236.62170858 79.5 1219.375 C80.41523437 1218.56804687 81.33046875 1217.76109375 82.2734375 1216.9296875 C90.87922666 1209.30594034 98.32992155 1201.36914641 105.5 1192.375 C106.36540948 1191.31211231 107.23130693 1190.24962177 108.09765625 1189.1875 C156.05565899 1129.87972674 181.81651047 1054.02126166 201.5 981.375 C201.69380249 980.66144348 201.88760498 979.94788696 202.08728027 979.21270752 C216.3385036 926.57136557 232.5 866.17532903 232.5 811.375 C225.31451563 816.91502768 225.31451563 816.91502768 219 823.375 C215.92055863 827.07032965 212.40933167 829.82299056 208.66015625 832.8203125 C205.20300619 835.59083566 201.85213326 838.47899843 198.5 841.375 C193.51118536 845.67540003 188.45776529 849.87987288 183.34375 854.03125 C180.02313406 856.76802138 176.75956291 859.56606385 173.5 862.375 C168.49299404 866.68905095 163.43054274 870.9194979 158.29296875 875.078125 C156.23002177 876.77464643 154.19598589 878.48836169 152.17578125 880.234375 C151.60609619 880.72478271 151.03641113 881.21519043 150.44946289 881.72045898 C149.35457242 882.66561009 148.26358571 883.61531198 147.17749023 884.57055664 C144.54248283 886.84055587 141.96830274 888.75159291 138.9140625 890.42578125 C135.66879556 892.27862816 133.30842619 894.17499507 130.625 896.75 C126.81707173 900.28056779 122.97288511 903.19082691 118.59765625 905.96875 C115.8784305 907.79169464 113.49559536 909.90089124 111.05078125 912.0703125 C109.01899315 913.77967579 106.78396687 915.02804518 104.5 916.375 C103.03321408 917.61857937 101.566775 918.86262152 100.109375 920.1171875 C98.43482711 921.42593609 96.74137432 922.42455326 94.875 923.4375 C91.54980214 925.15106783 91.54980214 925.15106783 89.5 927.375 C86.79783962 930.07716038 83.86101116 931.56522476 80.5 933.375 C80.5 934.035 80.5 934.695 80.5 935.375 C92.25381777 940.06021125 104.01844767 944.6545076 115.98486328 948.77075195 C123.29959902 951.28751696 130.56387973 953.93335186 137.81665039 956.62329102 C142.9897656 958.52497854 148.16348023 960.20392191 153.48193359 961.65527344 C155.5 962.375 155.5 962.375 157.5 964.375 C157.04109375 965.18839844 156.5821875 966.00179687 156.109375 966.83984375 C149.02151195 980.07747033 146.02255335 993.35159124 145.5 1008.375 C138.47172668 1007.12561307 131.77868127 1005.34918809 125 1003.125 C123.56877808 1002.66202515 123.56877808 1002.66202515 122.10864258 1002.18969727 C119.23687747 1001.25810078 116.36806919 1000.31790613 113.5 999.375 C112.67806152 999.10606934 111.85612305 998.83713867 111.00927734 998.56005859 C92.14598075 992.37982107 73.41235721 985.79949376 55 978.375 C46.25167545 974.84775 37.45045301 971.35848434 28.5 968.375 C25.57579411 969.83147165 25.57579411 969.83147165 22.4375 971.9375 C21.25944084 972.68931356 20.08105251 973.44061156 18.90234375 974.19140625 C18.32210449 974.56539551 17.74186523 974.93938477 17.14404297 975.32470703 C14.95684338 976.72199433 12.73253687 978.05160786 10.5 979.375 C6.62084035 981.68988064 2.77693135 984.0573195 -1.0625 986.4375 C-6.13524768 989.56698594 -11.26887048 992.52165663 -16.5 995.375 C-17.66854613 996.0383668 -18.83530206 996.70489981 -20 997.375 C-24.14260017 999.75174526 -28.32245823 1002.06041605 -32.5 1004.375 C-33.221875 1004.7771875 -33.94375 1005.179375 -34.6875 1005.59375 C-36.9563303 1006.85781259 -39.22769967 1008.11718631 -41.5 1009.375 C-42.35464844 1009.849375 -43.20929687 1010.32375 -44.08984375 1010.8125 C-49.7133575 1013.91067687 -55.39681391 1016.83924804 -61.15234375 1019.68359375 C-64.30697784 1021.27747539 -67.42383698 1022.92678508 -70.53808594 1024.59741211 C-79.7147589 1029.51825185 -89.03291951 1034.04193268 -98.5 1038.375 C-99.50804687 1038.83648438 -100.51609375 1039.29796875 -101.5546875 1039.7734375 C-103.31615647 1040.57503352 -105.07912069 1041.37335405 -106.84375 1042.16796875 C-108.74569986 1043.03223714 -110.64082023 1043.91159714 -112.53125 1044.80078125 C-119.53349469 1048.08945685 -126.59283034 1051.07418716 -133.796875 1053.8828125 C-136.49408685 1054.96966369 -139.13381837 1056.09681527 -141.78125 1057.29296875 C-146.86670831 1059.57288073 -152.04171632 1061.58246063 -157.25 1063.5625 C-158.16910156 1063.91763672 -159.08820313 1064.27277344 -160.03515625 1064.63867188 C-160.92589844 1064.97833984 -161.81664062 1065.31800781 -162.734375 1065.66796875 C-163.53069336 1065.9724292 -164.32701172 1066.27688965 -165.14746094 1066.59057617 C-167.58114125 1067.4020555 -169.97672309 1067.92433491 -172.5 1068.375 C-165.09515461 1087.2947992 -165.09515461 1087.2947992 -156.6796875 1105.77734375 C-155.5 1108.375 -155.5 1108.375 -155.5 1110.375 C-156.37140625 1110.76429687 -157.2428125 1111.15359375 -158.140625 1111.5546875 C-167.12858187 1115.77630361 -174.14778677 1120.68260078 -181.5 1127.375 C-184.17898247 1124.09789574 -185.89860578 1120.67533866 -187.6796875 1116.84375 C-187.97432892 1116.21198853 -188.26897034 1115.58022705 -188.57254028 1114.92932129 C-189.19494261 1113.59225557 -189.81508549 1112.25413603 -190.43310547 1110.91503906 C-191.36023367 1108.90698224 -192.29469076 1106.90247552 -193.23046875 1104.8984375 C-196.84328081 1097.13208118 -200.28116809 1089.31490963 -203.5 1081.375 C-207.44136028 1081.375 -210.08213723 1081.9918794 -213.8359375 1083.09765625 C-215.12573062 1083.47204775 -216.4156109 1083.84613908 -217.70556641 1084.2199707 C-218.72375458 1084.51781967 -218.72375458 1084.51781967 -219.76251221 1084.82168579 C-255.50352492 1095.24059734 -292.20590296 1103.56925815 -329.5 1105.375 C-330.40427734 1105.42930176 -331.30855469 1105.48360352 -332.24023438 1105.53955078 C-376.4497524 1108.16108292 -433.96112541 1103.92150888 -469.5 1073.375 C-469.5 1072.715 -469.5 1072.055 -469.5 1071.375 C-470.49 1071.375 -471.48 1071.375 -472.5 1071.375 C-474.21230248 1069.75525441 -475.87163262 1068.0791054 -477.5 1066.375 C-478.4075 1065.67375 -479.315 1064.9725 -480.25 1064.25 C-485.05320387 1060.32347345 -488.67787779 1055.21947309 -492.5 1050.375 C-493.13421875 1049.59511719 -493.7684375 1048.81523438 -494.421875 1048.01171875 C-506.84488599 1032.53792409 -515.05267912 1013.66560904 -519.125 994.3125 C-519.33664795 993.31009277 -519.5482959 992.30768555 -519.76635742 991.27490234 C-529.77276903 942.40565701 -520.26028845 888.51955997 -502.28320312 842.40234375 C-501.38594544 840.07976649 -500.52860385 837.74407325 -499.671875 835.40625 C-496.02221536 825.53005811 -492.06366417 815.85599914 -487.64526367 806.29760742 C-485.81028835 802.32665534 -484.06905359 798.34936503 -482.46875 794.27734375 C-480.75929253 789.94708164 -478.85504184 785.77562831 -476.75 781.625 C-476.41145996 780.95106201 -476.07291992 780.27712402 -475.72412109 779.58276367 C-472.74519165 773.71889681 -469.50515273 768.02716129 -466.1640625 762.36328125 C-464.50416651 759.55012305 -464.50416651 759.55012305 -463.62475586 757.08129883 C-462.29615421 753.88452234 -460.62497047 751.05227185 -458.83984375 748.0859375 C-458.4899086 747.50083405 -458.13997345 746.91573059 -457.7794342 746.31289673 C-456.66888181 744.45651799 -455.55368474 742.60299683 -454.4375 740.75 C-453.31800677 738.88971166 -452.19963801 737.02879459 -451.08485413 735.16567993 C-450.0763245 733.48029094 -449.06353817 731.79745133 -448.05053711 730.11474609 C-446.40632934 727.41406983 -446.40632934 727.41406983 -445.5 724.375 C-444.84 724.375 -444.18 724.375 -443.5 724.375 C-443.4175 723.6325 -443.335 722.89 -443.25 722.125 C-442.35612749 718.84746747 -440.94060884 717.65940987 -438.5 715.375 C-437.97792969 715.87128906 -437.45585937 716.36757813 -436.91796875 716.87890625 C-431.19288696 722.16282587 -425.17965766 726.37969075 -418.5 730.375 C-420.11710128 735.09839751 -422.69470506 738.9390462 -425.4375 743.0625 C-433.91283111 756.01057167 -442.02602926 769.03731366 -449.06469727 782.83154297 C-450.93957211 786.49343909 -452.87453758 790.03106811 -455.1015625 793.4921875 C-456.92076001 796.34863143 -458.36606361 799.17983024 -459.63720703 802.32958984 C-460.75994007 804.99123596 -462.01747082 807.57628613 -463.27734375 810.17578125 C-463.79103516 811.23603516 -464.30472656 812.29628906 -464.83398438 813.38867188 C-465.89764082 815.57687618 -466.96273081 817.76438428 -468.02929688 819.95117188 C-471.12038249 826.33838382 -473.97613669 832.74329187 -476.5 839.375 C-476.88224731 840.36584595 -476.88224731 840.36584595 -477.2722168 841.37670898 C-479.05589528 846.02733762 -480.77818479 850.70119621 -482.5 855.375 C-482.75571777 856.0654541 -483.01143555 856.7559082 -483.27490234 857.46728516 C-486.98056185 867.51944606 -490.18969344 877.63130415 -492.88232422 888.00195312 C-493.29866476 889.60149071 -493.72233081 891.19913723 -494.15283203 892.79492188 C-502.79117858 924.95830194 -508.54397804 969.45414262 -491.68359375 1000.0234375 C-490.5 1002.375 -490.5 1002.375 -489.59375 1005.31640625 C-488.3742565 1008.72663271 -486.75613275 1011.06576104 -484.5625 1013.9375 C-482.54222652 1016.59972953 -480.61737746 1019.17490493 -478.92578125 1022.05859375 C-477.37190561 1024.58310952 -475.54181732 1026.1736097 -473.1953125 1027.96875 C-471.5 1029.375 -471.5 1029.375 -469.22265625 1031.73046875 C-443.60449759 1056.6135296 -402.66647628 1061.97302945 -368.6730957 1061.65844727 C-347.62776949 1061.22072562 -327.17645334 1058.10772352 -306.5 1054.375 C-305.67435547 1054.2291748 -304.84871094 1054.08334961 -303.99804688 1053.93310547 C-295.832568 1052.48201133 -287.88491835 1050.47937384 -279.92480469 1048.17578125 C-276.39779436 1047.15654461 -272.89902777 1046.2323427 -269.30078125 1045.5 C-263.06642205 1044.15281288 -257.09007564 1041.99772602 -251.0625 1039.9375 C-248.73096208 1039.1456813 -246.39893789 1038.35529286 -244.06640625 1037.56640625 C-242.95410645 1037.19016113 -241.84180664 1036.81391602 -240.69580078 1036.42626953 C-237.02124681 1035.21751251 -233.32418206 1034.11567392 -229.60131836 1033.06616211 C-227.43936465 1032.35505592 -225.50753261 1031.44142178 -223.5 1030.375 C-224.62463013 1024.61292444 -226.16112271 1019.03847258 -227.8984375 1013.43359375 C-228.13005081 1012.6860231 -228.36166412 1011.93845245 -228.60029602 1011.16822815 C-228.84184921 1010.3888237 -229.0834024 1009.60941925 -229.33227539 1008.80639648 C-247.98439209 948.60497348 -261.36681658 886.27112153 -268.671875 823.65234375 C-268.76114761 822.89558853 -268.85042023 822.13883331 -268.94239807 821.35914612 C-269.35051897 817.87404702 -269.73577614 814.3905431 -270.08374023 810.89868164 C-270.21466064 809.7049292 -270.34558105 808.51117676 -270.48046875 807.28125 C-270.58254639 806.25322266 -270.68462402 805.22519531 -270.78979492 804.16601562 C-272.30505742 798.21122674 -276.53912296 795.51338796 -281.5 792.375 C-283.57532568 790.8085154 -285.63738852 789.22434162 -287.6875 787.625 C-291.65441094 784.54112659 -295.64898723 781.53014492 -299.75 778.625 C-306.97767543 773.41853395 -313.74528204 767.64089435 -320.59228516 761.95068359 C-322.95465782 759.99947382 -325.347174 758.08859398 -327.75 756.1875 C-332.11248718 752.72121137 -336.3606338 749.13064994 -340.60327148 745.51977539 C-344.14013849 742.5131514 -347.71038275 739.55359117 -351.3125 736.625 C-354.6248408 733.91975979 -357.93027502 731.20899845 -361.1875 728.4375 C-361.83074219 727.89222656 -362.47398437 727.34695313 -363.13671875 726.78515625 C-364.5 725.375 -364.5 725.375 -364.5 723.375 C-365.28890625 723.06369141 -365.28890625 723.06369141 -366.09375 722.74609375 C-369.52334181 720.79189452 -372.15399986 718.15120308 -375 715.4375 C-376.13377146 714.36414493 -377.26914779 713.29248211 -378.40625 712.22265625 C-378.93734375 711.72266113 -379.4684375 711.22266602 -380.015625 710.70751953 C-381.60063548 709.23930935 -381.60063548 709.23930935 -383.90625 707.62109375 C-384.4321875 707.20988281 -384.958125 706.79867187 -385.5 706.375 C-385.5 705.715 -385.5 705.055 -385.5 704.375 C-386.09240479 704.10929199 -386.68480957 703.84358398 -387.29516602 703.56982422 C-389.55699757 702.34411238 -390.99390782 701.09751079 -392.77734375 699.2578125 C-393.37353516 698.65066406 -393.96972656 698.04351563 -394.58398438 697.41796875 C-395.19564453 696.78503906 -395.80730469 696.15210938 -396.4375 695.5 C-400.30586443 691.52087646 -404.13351678 687.81502939 -408.5 684.375 C-409.53609396 683.26169711 -410.54066594 682.11758991 -411.5 680.9375 C-413.99296561 677.88503358 -416.69301561 675.1428899 -419.5 672.375 C-422.12803245 669.77387941 -424.75182304 667.16851599 -427.375 664.5625 C-428.05691406 663.88896484 -428.73882812 663.21542969 -429.44140625 662.52148438 C-433.42666777 658.55520029 -437.22192714 654.48950937 -440.89208984 650.23022461 C-443.15867214 647.61501677 -445.51617296 645.09487437 -447.875 642.5625 C-452.14395194 637.94200451 -456.18031294 633.18393248 -460.125 628.28125 C-462.83468777 624.96544786 -465.63213931 621.73470284 -468.4375 618.5 C-473.62155654 612.49736513 -478.50264009 606.31423992 -483.27783203 599.98388672 C-484.51496242 598.35530317 -485.76817946 596.740501 -487.02734375 595.12890625 C-492.80120406 587.73045322 -498.25182844 580.15846097 -503.5 572.375 C-503.97228027 571.67681152 -504.44456055 570.97862305 -504.93115234 570.25927734 C-511.34595186 560.76190771 -517.61441747 551.21133773 -523.5 541.375 C-523.87833984 540.74835449 -524.25667969 540.12170898 -524.64648438 539.47607422 C-551.48171338 494.97756042 -574.03907625 443.98057373 -573.8125 391.125 C-573.81100952 390.45445587 -573.80951904 389.78391174 -573.8079834 389.0930481 C-573.6711408 354.66539022 -562.52389703 321.53521688 -538.5 296.375 C-537.61699219 295.41335938 -536.73398437 294.45171875 -535.82421875 293.4609375 C-514.67224858 271.2121985 -484.92107999 256.87836268 -455.5 249.375 C-455.36722656 250.52097656 -455.23445313 251.66695312 -455.09765625 252.84765625 C-454.91931812 254.37760968 -454.74093004 255.90755729 -454.5625 257.4375 C-454.47548828 258.18966797 -454.38847656 258.94183594 -454.29882812 259.71679688 C-453.76536361 264.28088219 -453.17013702 268.82893534 -452.5 273.375 C-454.35238281 274.06722656 -454.35238281 274.06722656 -456.2421875 274.7734375 C-486.99809924 286.51109747 -513.1380641 303.70708286 -527.61572266 334.33203125 C-542.79542488 369.40208873 -535.99889551 411.57111463 -522.6328125 446.11010742 C-520.98367401 450.22536312 -519.24834043 454.30114805 -517.5 458.375 C-516.87729019 459.8670565 -516.25488734 461.35924115 -515.6328125 462.8515625 C-504.69262353 488.66388385 -489.5818781 512.50310089 -473.5 535.375 C-472.96084961 536.14376465 -472.42169922 536.9125293 -471.86621094 537.70458984 C-464.61395842 548.0073238 -456.99905061 557.92345291 -448.953125 567.61767578 C-446.86384079 570.14433367 -444.81028732 572.69967907 -442.75 575.25 C-439.21417477 579.572998 -435.51455086 583.71583057 -431.75 587.83984375 C-429.41110579 590.47516031 -427.20284117 593.18777292 -425 595.9375 C-421.51599958 600.24697787 -417.84031724 604.1837772 -413.8359375 608.01171875 C-411.90382306 609.96644992 -410.12265639 611.95067237 -408.3347168 614.03369141 C-404.65167323 618.2569135 -400.77579821 622.24405618 -396.80859375 626.19921875 C-396.10025894 626.90851028 -395.39192413 627.61780182 -394.66212463 628.34858704 C-393.17677484 629.83461221 -391.69018207 631.31939594 -390.20239258 632.80297852 C-387.93650535 635.06349229 -385.67602842 637.32931788 -383.41601562 639.59570312 C-381.96386231 641.04719586 -380.51139894 642.49837848 -379.05859375 643.94921875 C-378.38968613 644.6201506 -377.7207785 645.29108246 -377.03160095 645.98234558 C-374.12600791 648.87357483 -371.22767845 651.64951053 -368.02758789 654.21411133 C-366.77643188 655.28375122 -366.77643188 655.28375122 -365.5 656.375 C-365.5 657.035 -365.5 657.695 -365.5 658.375 C-364.90541992 658.64739502 -364.31083984 658.91979004 -363.69824219 659.20043945 C-361.55559444 660.34529488 -360.07993363 661.50144698 -358.328125 663.16796875 C-357.75030273 663.71227539 -357.17248047 664.25658203 -356.57714844 664.81738281 C-355.97418945 665.39327148 -355.37123047 665.96916016 -354.75 666.5625 C-353.49036407 667.74952696 -352.2299535 668.93573245 -350.96875 670.12109375 C-350.06576172 670.9716333 -350.06576172 670.9716333 -349.14453125 671.83935547 C-346.6230505 674.19388544 -344.02709615 676.45537459 -341.4140625 678.70703125 C-339.11857205 680.70738721 -336.87494375 682.7610807 -334.625 684.8125 C-330.60092679 688.44457825 -326.45564244 691.85658162 -322.19921875 695.2109375 C-319.08294563 697.70936776 -316.03982416 700.28460269 -313 702.875 C-308.50109799 706.70296749 -303.95600605 710.45394314 -299.32421875 714.12109375 C-297.00206927 715.97431678 -294.69518948 717.84295842 -292.39453125 719.72265625 C-291.30845581 720.60945068 -291.30845581 720.60945068 -290.20043945 721.51416016 C-288.75117878 722.69858866 -287.30306866 723.88442658 -285.85620117 725.07177734 C-285.19209229 725.61398926 -284.5279834 726.15620117 -283.84375 726.71484375 C-282.94946289 727.44755493 -282.94946289 727.44755493 -282.03710938 728.19506836 C-280.49324333 729.45749573 -280.49324333 729.45749573 -278.5 730.375 C-278.39069158 723.25780702 -278.47833659 716.18550982 -278.85446358 709.07909203 C-279.54843976 695.91066911 -279.64665267 682.76982884 -279.6328125 669.5859375 C-279.63348925 667.26307159 -279.63446232 664.94020576 -279.63571167 662.61734009 C-279.63717301 657.78183305 -279.63508624 652.94634468 -279.63037109 648.11083984 C-279.62469339 641.9994038 -279.62803475 635.88801151 -279.63382339 629.776577 C-279.67304948 580.67569506 -279.67304948 580.67569506 -278.5 558.375 C-278.903396 558.8491333 -279.30679199 559.3232666 -279.72241211 559.81176758 C-280.25616455 560.43720459 -280.78991699 561.0626416 -281.33984375 561.70703125 C-281.86698975 562.32553955 -282.39413574 562.94404785 -282.93725586 563.58129883 C-285.70207844 566.75473291 -288.55635297 569.65383886 -291.90234375 572.2109375 C-294.52516756 574.39596666 -296.43149613 576.60592941 -298.5 579.3125 C-301.3159216 582.92089485 -304.21621138 586.17996242 -307.5 589.375 C-308.325 590.365 -309.15 591.355 -310 592.375 C-312.36860739 595.21732887 -314.88600223 597.76100223 -317.5 600.375 C-318.40434686 601.47220469 -319.30021996 602.57644846 -320.1875 603.6875 C-320.950625 604.574375 -321.71375 605.46125 -322.5 606.375 C-323.16 606.375 -323.82 606.375 -324.5 606.375 C-324.5 607.365 -324.5 608.355 -324.5 609.375 C-326.11974559 611.08730248 -327.7958946 612.74663262 -329.5 614.375 C-331.21439073 616.3395991 -332.85359305 618.35227146 -334.5 620.375 C-338.57210017 619.79465318 -341.01296279 617.63143199 -344.1875 615.125 C-349.04995434 611.35217338 -353.99866148 608.13956153 -359.5 605.375 C-356.1970357 600.16516971 -352.92716802 595.69675926 -348.5 591.375 C-347.15128313 589.72075747 -345.81942644 588.05269766 -344.5 586.375 C-341.67884274 582.79450322 -338.72326566 579.59826566 -335.5 576.375 C-334.31858823 574.88658563 -333.15322784 573.38535647 -332 571.875 C-329.37293539 568.43479635 -326.6049617 565.39825218 -323.5 562.375 C-322.675 561.385 -321.85 560.395 -321 559.375 C-318.63139261 556.53267113 -316.11399777 553.98899777 -313.5 551.375 C-312.675 550.385 -311.85 549.395 -311 548.375 C-307.96199241 544.72939089 -304.87225115 541.42200981 -301.09375 538.5390625 C-298.45675833 536.33892186 -296.56670056 534.10837816 -294.5 531.375 C-291.78895305 527.78942177 -289.07333601 525.10140897 -285.5 522.375 C-283.79115995 520.75160195 -282.12553283 519.08180947 -280.5 517.375 C-279.613125 516.55 -278.72625 515.725 -277.8125 514.875 C-271.90991384 507.56475101 -272.91353214 493.51110787 -271.90356445 484.33618164 C-264.17878159 414.24292098 -252.87012688 342.48538065 -230.5 275.375 C-231.37615967 275.30696167 -231.37615967 275.30696167 -232.27001953 275.23754883 C-239.08791232 274.64006323 -245.67551088 273.4338218 -252.375 272.0625 C-266.34770271 269.29186846 -280.38280985 267.25030165 -294.5 265.375 C-295.64484863 265.22256836 -296.78969727 265.07013672 -297.96923828 264.91308594 C-304.47747395 264.05004337 -310.98798721 263.20987343 -317.5 262.375 C-317.5 254.785 -317.5 247.195 -317.5 239.375 C-308.0543735 239.18313571 -298.86612217 239.8951187 -289.5 241 C-288.75531464 241.08603485 -288.01062927 241.1720697 -287.24337769 241.26071167 C-275.13104059 242.67010704 -263.09047334 244.43608903 -251.0625 246.4375 C-250.31363525 246.56110901 -249.56477051 246.68471802 -248.79321289 246.81207275 C-239.92503133 248.28708663 -231.18556167 250.02376334 -222.5 252.375 C-222.33854492 251.73755859 -222.17708984 251.10011719 -222.01074219 250.44335938 C-219.99774093 242.76035867 -217.48604884 235.32837444 -214.75 227.875 C-214.51723358 227.24026764 -214.28446716 226.60553528 -214.04464722 225.9515686 C-201.97760143 193.19194804 -187.59960545 161.12713101 -170.0078125 130.96435547 C-168.6064504 128.5578065 -167.22247846 126.14222025 -165.84375 123.72265625 C-154.09282093 103.2320311 -140.03728215 84.14870912 -124.5 66.375 C-123.75234375 65.51519531 -123.0046875 64.65539062 -122.234375 63.76953125 C-113.08894397 53.42335118 -103.46047174 43.80167708 -92.5 35.375 C-91.95005371 34.94864258 -91.40010742 34.52228516 -90.83349609 34.08300781 C-64.2073091 13.55357471 -34.05005723 -0.09893479 0 0 Z " fill="#FEFEFE" transform="translate(639.5,-0.375)"/>
<path d="M0 0 C1.23363281 0.60908203 1.23363281 0.60908203 2.4921875 1.23046875 C3.47960937 1.70871094 4.46703125 2.18695313 5.484375 2.6796875 C7.56612672 3.71018056 9.64050466 4.75571119 11.70703125 5.81640625 C14.92255887 7.44897427 18.16208607 8.8481625 21.4921875 10.23046875 C22.84678539 10.82549668 24.19949032 11.42484355 25.55078125 12.02734375 C28.02570739 13.13082039 30.50061731 14.23420227 32.97827148 15.33154297 C44.5644608 20.47080331 55.90743458 25.89018149 67.078125 31.87890625 C71.01391111 33.98851476 74.9883549 36.00376682 78.9921875 37.98046875 C94.36949019 45.60523102 109.74142588 53.36835068 124.63549805 61.90478516 C128.28945824 63.99866531 131.96721326 66.03470809 135.6796875 68.0234375 C145.39289328 73.23086846 154.88793897 78.59809968 164.14746094 84.578125 C171.63301894 89.39094086 179.31507254 93.84246347 187.04638672 98.24755859 C192.64324639 101.46293697 197.99116016 104.86072865 203.22460938 108.64135742 C206.36436655 110.84168897 209.64508682 112.76750561 212.9453125 114.71484375 C220.12730793 118.98879195 227.09661464 123.60404847 234.0546875 128.23046875 C234.9377356 128.81683105 234.9377356 128.81683105 235.83862305 129.41503906 C237.04923319 130.22354955 238.25136151 131.04487662 239.44555664 131.87744141 C241.54816133 133.30947155 241.54816133 133.30947155 244.11499023 134.65771484 C247.95189828 136.90856319 250.86790998 138.62556455 252.52124023 142.87597656 C253.07353177 146.22165641 253.29519283 149.46688701 253.4296875 152.85546875 C253.56677706 154.82908571 253.70388155 156.80270166 253.84136963 158.77629089 C253.98536138 160.97308122 254.10569895 163.17018779 254.22119141 165.36865234 C254.5078955 170.71958947 254.8961078 176.06193355 255.28515625 181.40625 C257.28736877 209.35735173 258.61721628 237.27262676 259.1171875 265.29296875 C259.13964539 266.52939117 259.16210327 267.7658136 259.1852417 269.03970337 C259.51093281 287.84078536 259.48908941 306.61791016 259.1171875 325.41796875 C259.09585754 326.51062042 259.07452759 327.60327209 259.05255127 328.72903442 C258.9269697 334.88515487 258.76701178 341.0393224 258.57727051 347.19378662 C258.48807579 350.37721902 258.42887698 353.56050097 258.37011719 356.74462891 C258.3154531 358.84019559 258.25982398 360.93573738 258.203125 363.03125 C258.19141266 363.99927048 258.17970032 364.96729095 258.16763306 365.96464539 C257.95263073 372.59778391 257.95263073 372.59778391 255.57275391 375.86791992 C253.4921875 377.23046875 253.4921875 377.23046875 251.4921875 377.23046875 C251.4921875 378.22046875 251.4921875 379.21046875 251.4921875 380.23046875 C249.69921875 381.84375 249.69921875 381.84375 247.3046875 383.54296875 C244.44913002 385.6611757 241.94777564 387.62375098 239.7421875 390.41796875 C237.52375791 393.19100574 235.28641819 395.06493997 232.4921875 397.23046875 C231.7290625 397.99359375 230.9659375 398.75671875 230.1796875 399.54296875 C228.01143107 401.71122518 225.82200558 403.68347079 223.4921875 405.66796875 C220.65559279 408.11512374 218.35365604 410.61096273 216.03515625 413.5625 C213.09569643 416.74009327 209.6038953 419.31099112 206.2109375 421.984375 C203.4579273 424.2587728 200.99393217 426.68476372 198.4921875 429.23046875 C190.82163596 436.40361251 182.74699749 443.05569876 174.52734375 449.5859375 C168.92082637 454.05529529 168.92082637 454.05529529 163.9921875 459.23046875 C159.58740084 464.51621275 153.96874655 469.18316175 148.03125 472.6796875 C144.87446229 474.6077563 142.151936 476.9393084 139.3671875 479.35546875 C138.2180919 480.34059542 137.06834115 481.32495836 135.91796875 482.30859375 C135.05872803 483.04432617 135.05872803 483.04432617 134.18212891 483.79492188 C130.78567369 486.68009331 127.32137491 489.48232658 123.86328125 492.29296875 C121.92703389 493.87514123 120.01752825 495.48074994 118.1171875 497.10546875 C115.4921875 499.23046875 115.4921875 499.23046875 113.2265625 500.5234375 C109.28806557 502.98218487 105.9518134 506.04182307 102.484375 509.11523438 C99.72312895 511.51160149 97.04055426 513.58192784 93.8359375 515.35546875 C90.93612266 516.98153315 88.77560822 518.54074268 86.3671875 520.79296875 C83.53710957 523.35196641 80.80684456 525.32454094 77.4921875 527.23046875 C74.78656541 529.17898618 72.14230635 531.20736508 69.4921875 533.23046875 C64.90803884 536.71373368 60.28422925 540.03577425 55.4921875 543.23046875 C54.6465625 543.91109375 53.8009375 544.59171875 52.9296875 545.29296875 C50.4921875 547.23046875 50.4921875 547.23046875 48.15234375 548.6328125 C45.50422107 550.22324154 43.00734814 551.9384168 40.4921875 553.73046875 C38.83530879 554.91099483 37.16863976 556.07790782 35.4921875 557.23046875 C34.6878125 557.81828125 33.8834375 558.40609375 33.0546875 559.01171875 C29.63338311 560.6389245 28.11467514 560.28647068 24.4921875 559.23046875 C21.81545121 558.09023192 19.25207366 556.77507362 16.6796875 555.41796875 C15.24684921 554.68082138 13.81326163 553.94512853 12.37890625 553.2109375 C11.36062744 552.68765869 11.36062744 552.68765869 10.32177734 552.15380859 C8.24148889 551.10394858 6.13467997 550.14631176 3.9921875 549.23046875 C-2.26410105 546.52376327 -8.31104278 543.36406465 -14.39501953 540.29492188 C-17.10073385 538.93174711 -19.81047811 537.57673736 -22.52099609 536.22314453 C-23.85647958 535.5558951 -25.19143282 534.88758345 -26.52587891 534.21826172 C-29.73902617 532.60741011 -32.95656933 531.00829388 -36.19140625 529.44140625 C-45.56629849 524.87348754 -54.65355353 519.85303533 -63.73071289 514.72070312 C-70.06391645 511.14327712 -76.43054828 507.64565152 -82.84912109 504.22387695 C-91.8363668 499.42937737 -100.57883469 494.44218067 -109.1262207 488.90112305 C-117.0215792 483.8127061 -125.1705167 479.1796188 -133.35107422 474.56884766 C-139.20587021 471.24301962 -144.81122685 467.76335563 -150.26318359 463.80810547 C-153.43329892 461.57999091 -156.75816173 459.64696169 -160.09375 457.6796875 C-163.09589868 455.87742672 -165.99740354 453.95192853 -168.8984375 451.9921875 C-170.94481048 450.6105794 -172.99690112 449.23944898 -175.0546875 447.875 C-181.44323872 443.63706625 -187.79412999 439.36342394 -194.0546875 434.9375 C-196.82307347 433.01109129 -199.6307916 431.15127421 -202.4453125 429.29296875 C-217.31069712 419.42758413 -217.31069712 419.42758413 -221.5078125 415.23046875 C-221.88459299 412.35177508 -222.14379141 409.54874812 -222.32421875 406.65625 C-222.38560532 405.7813945 -222.44699188 404.906539 -222.51023865 404.00517273 C-222.63963635 402.13663593 -222.76458516 400.26778667 -222.88549805 398.39868164 C-223.06491265 395.62640603 -223.2566239 392.85523432 -223.45117188 390.08398438 C-228.07049359 323.01279657 -227.18477509 255.62340319 -222.8359375 188.56982422 C-222.6293237 185.37032807 -222.4604698 182.17787747 -222.3671875 178.97314453 C-222.04435949 170.96409539 -222.04435949 170.96409539 -219.28515625 167.19140625 C-218.36863281 166.54429687 -217.45210938 165.8971875 -216.5078125 165.23046875 C-215.17943359 164.13605469 -215.17943359 164.13605469 -213.82421875 163.01953125 C-212.46103516 161.94832031 -212.46103516 161.94832031 -211.0703125 160.85546875 C-207.27558801 157.79439099 -204.12811624 154.78251222 -201.10546875 150.984375 C-198.3747112 147.9865507 -195.1094104 145.65098306 -191.875 143.22265625 C-189.35737762 141.10386514 -187.55341054 138.79945223 -185.5078125 136.23046875 C-183.92224762 134.83033434 -182.29363746 133.47795074 -180.6328125 132.16796875 C-175.44861889 128.01503946 -170.39301072 123.73580812 -165.36767578 119.39233398 C-164.80806152 118.90966064 -164.24844727 118.4269873 -163.671875 117.9296875 C-163.13594727 117.46739746 -162.60001953 117.00510742 -162.04785156 116.52880859 C-160.63448741 115.33726284 -159.17828895 114.19701557 -157.71875 113.0625 C-155.31055392 111.24523685 -155.31055392 111.24523685 -153.5078125 108.23046875 C-152.5178125 108.23046875 -151.5278125 108.23046875 -150.5078125 108.23046875 C-150.29640625 107.67359375 -150.085 107.11671875 -149.8671875 106.54296875 C-148.04412659 103.44166974 -145.52137793 101.4548019 -142.7578125 99.23046875 C-142.24476563 98.80507813 -141.73171875 98.3796875 -141.203125 97.94140625 C-138.72285862 95.90983128 -136.21352596 94.03672689 -133.53515625 92.2734375 C-130.05750523 89.92658397 -126.97039033 87.30453551 -123.8203125 84.54296875 C-122.58938633 83.47558763 -121.35760501 82.40919196 -120.125 81.34375 C-119.21379395 80.55605225 -119.21379395 80.55605225 -118.28417969 79.75244141 C-114.09397255 76.16231616 -109.80263885 72.69426366 -105.5078125 69.23046875 C-104.68410156 68.54984375 -103.86039063 67.86921875 -103.01171875 67.16796875 C-100.5078125 65.23046875 -100.5078125 65.23046875 -98.0703125 63.79296875 C-94.95567204 61.89379774 -92.26075271 59.60610243 -89.5078125 57.23046875 C-86.00292498 54.20594653 -82.50239549 51.58361796 -78.5078125 49.23046875 C-76.84132787 47.94429123 -75.19566927 46.63074264 -73.5703125 45.29296875 C-69.99253206 42.38834107 -66.35682202 39.76731593 -62.5078125 37.23046875 C-60.991875 35.96203125 -60.991875 35.96203125 -59.4453125 34.66796875 C-56.87087013 32.53172934 -54.37582175 30.92185882 -51.5078125 29.23046875 C-50.6828125 28.57046875 -49.8578125 27.91046875 -49.0078125 27.23046875 C-46.5078125 25.23046875 -46.5078125 25.23046875 -44.17578125 23.83984375 C-41.43470542 22.18636902 -38.89484134 20.3818933 -36.3203125 18.48046875 C-29.16404643 13.23382624 -21.94162636 8.07860822 -14.5078125 3.23046875 C-13.90582031 2.74964844 -13.30382812 2.26882813 -12.68359375 1.7734375 C-7.9710778 -1.73548892 -5.43605629 -2.30421071 0 0 Z " fill="#1E1E1E" transform="translate(623.5078125,345.76953125)"/>
<path d="M0 0 C6.76907035 3.82650197 13.3354748 7.77931949 19.6484375 12.32421875 C25.27861222 16.33641967 31.11629095 19.90190421 37.08203125 23.38085938 C40.73717844 25.54418762 44.22113926 27.84635616 47.671875 30.32421875 C53.54461126 34.47765623 59.73308768 37.98070209 66 41.5 C67.86333088 42.55385794 69.7256428 43.60950202 71.5879364 44.66519165 C72.85657835 45.38417805 74.12555128 46.10258074 75.39485168 46.82040405 C81.68402953 50.37890314 87.93560695 54.00147905 94.1875 57.625 C119.38871379 72.18464104 144.73701808 86.26950891 171.078125 98.671875 C175.80545305 100.89978177 180.5056695 103.17807743 185.1875 105.5 C185.85322021 105.82645508 186.51894043 106.15291016 187.20483398 106.48925781 C189.83008811 107.79892104 191.91040321 108.91040321 194 111 C192.27136297 112.10499565 190.54206612 113.20895914 188.8125 114.3125 C187.84957031 114.92738281 186.88664063 115.54226563 185.89453125 116.17578125 C183.28346151 117.82135421 180.65275475 119.4228085 178 121 C177.175 121.495 176.35 121.99 175.5 122.5 C174.675 122.995 173.85 123.49 173 124 C172.23042969 124.46792969 171.46085938 124.93585938 170.66796875 125.41796875 C168.08115013 126.95188023 165.46272931 128.39147601 162.8125 129.8125 C159.16697842 131.78634524 155.59425244 133.82968116 152.0625 136 C147.5587303 138.73772457 142.91554941 141.06025991 138.18359375 143.375 C134.81654786 145.09363937 131.57315053 146.96268262 128.3125 148.875 C122.53397609 152.24922082 116.61011003 155.13782393 110.53076172 157.92700195 C105.39683778 160.29770418 100.40883282 162.86917177 95.4375 165.5625 C88.60172379 169.25590931 81.64350127 172.47013611 74.48828125 175.4921875 C71.2578795 176.88853137 68.14343475 178.42018099 65 180 C62.40989448 181.19906507 59.80165426 182.35444026 57.1875 183.5 C56.135625 183.96128296 56.135625 183.96128296 55.0625 184.43188477 C50.11535383 186.57568621 45.16322572 188.43259219 40 190 C36.39949214 179.54764526 33.1893343 169.04764843 30.3125 158.375 C30.10167786 157.59465393 29.89085571 156.81430786 29.67364502 156.01031494 C16.96144833 108.70617291 8.26082197 60.50480477 1.25 12.0625 C1.12231735 11.18653168 0.9946347 10.31056335 0.86308289 9.40805054 C0.74842178 8.60437042 0.63376068 7.80069031 0.515625 6.97265625 C0.41540039 6.27406494 0.31517578 5.57547363 0.21191406 4.85571289 C0 3 0 3 0 0 Z " fill="#1E1E1E" transform="translate(409,828)"/>
<path d="M0 0 C6.01780545 -0.49641829 11.19635871 1.32256577 16.875 3.0625 C19.04674987 3.71395894 21.21862838 4.3649892 23.390625 5.015625 C24.49470703 5.34884766 25.59878906 5.68207031 26.73632812 6.02539062 C29.77109573 6.93164379 32.81198255 7.80917123 35.859375 8.671875 C52.08185492 13.27480747 68.04531046 18.5536657 84 24 C84.98613281 24.33563965 85.97226562 24.6712793 86.98828125 25.01708984 C96.54327677 28.27897941 106.00696797 31.71303203 115.3918457 35.43725586 C119.1688099 36.92906182 122.95496377 38.35129755 126.796875 39.66796875 C127.96440308 40.06810181 127.96440308 40.06810181 129.15551758 40.47631836 C130.63704411 40.97861403 132.12115493 41.47337392 133.6081543 41.95922852 C137.05388117 43.12563527 139.72994196 44.06532421 142 47 C128.419171 57.3563305 128.419171 57.3563305 121.35546875 61.58203125 C118.9006613 62.98895052 118.9006613 62.98895052 116.5 65 C114 67 114 67 111.5625 68.4375 C108.82858054 70.0186084 108.82858054 70.0186084 106 72.5 C103.39698589 74.66917843 100.88909896 76.26654062 98 78 C97.01 78.825 96.02 79.65 95 80.5 C92 83 92 83 89.62109375 84.41015625 C86.89312779 86.06482413 84.5246105 87.91102358 82.0625 89.9375 C79.45528981 92.08194071 76.88238098 94.0775785 74.0625 95.9375 C69.72809163 98.85659135 65.86832084 102.26585153 61.90234375 105.66015625 C59 108 59 108 56.50390625 109.49609375 C53.39633336 111.36257669 50.73107064 113.63585183 48 116 C46.84641018 116.98704463 45.69276269 117.97402188 44.5390625 118.9609375 C43.95286133 119.46463867 43.36666016 119.96833984 42.76269531 120.48730469 C39.97666803 122.87819458 37.17680166 125.25263179 34.375 127.625 C33.83351318 128.08398682 33.29202637 128.54297363 32.73413086 129.01586914 C29.37223311 131.85922746 25.97977004 134.66065538 22.5625 137.4375 C18.31607618 140.89274151 14.14703706 144.42697834 10 148 C4.99391517 152.31316365 -0.07250777 156.53730632 -5.19921875 160.70703125 C-8.44489738 163.36423258 -11.66577721 166.04895331 -14.875 168.75 C-15.41068604 169.19802979 -15.94637207 169.64605957 -16.49829102 170.10766602 C-19.83396757 172.92428514 -22.92961253 175.89946143 -26 179 C-27.424553 180.28532967 -28.86093429 181.55775676 -30.3125 182.8125 C-31.00988281 183.41707031 -31.70726562 184.02164063 -32.42578125 184.64453125 C-32.94527344 185.09183594 -33.46476562 185.53914062 -34 186 C-35.27586493 181.67651245 -34.66578938 177.81651838 -34.06640625 173.41796875 C-33.95382477 172.55322433 -33.84124329 171.68847992 -33.72525024 170.79753113 C-33.34726075 167.92614809 -32.95611411 165.05678084 -32.5625 162.1875 C-32.42784332 161.19349182 -32.29318665 160.19948364 -32.15444946 159.175354 C-24.86906418 105.60556032 -15.06391373 51.97831517 0 0 Z " fill="#1E1E1E" transform="translate(442,284)"/>
<path d="M0 0 C11.52750626 11.52750626 18.92426294 25.25619557 19.19311523 41.67822266 C19.15908734 58.77798023 15.36078923 74.26421077 2.8125 86.8125 C-13.59052794 100.61776333 -29.185062 104.35871602 -50.1875 102.8125 C-66.01411449 100.16680969 -78.79504948 90.71835812 -88.0703125 78.0078125 C-97.6857834 63.49590254 -99.36746847 46.85314973 -96.53515625 29.91015625 C-92.1004707 14.20794347 -82.6036619 2.70193735 -69.1875 -6.1875 C-45.90917375 -18.96896826 -21.16338963 -14.52389485 0 0 Z " fill="#48906C" transform="translate(551.1875,1133.1875)"/>
<path d="M0 0 C11.52750626 11.52750626 18.92426294 25.25619557 19.19311523 41.67822266 C19.15908734 58.77798023 15.36078923 74.26421077 2.8125 86.8125 C-13.59052794 100.61776333 -29.185062 104.35871602 -50.1875 102.8125 C-66.01411449 100.16680969 -78.79504948 90.71835812 -88.0703125 78.0078125 C-97.6857834 63.49590254 -99.36746847 46.85314973 -96.53515625 29.91015625 C-92.1004707 14.20794347 -82.6036619 2.70193735 -69.1875 -6.1875 C-45.90917375 -18.96896826 -21.16338963 -14.52389485 0 0 Z " fill="#89979D" transform="translate(679.1875,595.1875)"/>
<path d="M0 0 C11.52750626 11.52750626 18.92426294 25.25619557 19.19311523 41.67822266 C19.15908734 58.77798023 15.36078923 74.26421077 2.8125 86.8125 C-13.59052794 100.61776333 -29.185062 104.35871602 -50.1875 102.8125 C-66.01411449 100.16680969 -78.79504948 90.71835812 -88.0703125 78.0078125 C-97.6857834 63.49590254 -99.36746847 46.85314973 -96.53515625 29.91015625 C-92.1004707 14.20794347 -82.6036619 2.70193735 -69.1875 -6.1875 C-45.90917375 -18.96896826 -21.16338963 -14.52389485 0 0 Z " fill="#FD5153" transform="translate(1179.1875,321.1875)"/>
<path d="M0 0 C11.52750626 11.52750626 18.92426294 25.25619557 19.19311523 41.67822266 C19.15908734 58.77798023 15.36078923 74.26421077 2.8125 86.8125 C-13.59052794 100.61776333 -29.185062 104.35871602 -50.1875 102.8125 C-66.01411449 100.16680969 -78.79504948 90.71835812 -88.0703125 78.0078125 C-97.6857834 63.49590254 -99.36746847 46.85314973 -96.53515625 29.91015625 C-92.1004707 14.20794347 -82.6036619 2.70193735 -69.1875 -6.1875 C-45.90917375 -18.96896826 -21.16338963 -14.52389485 0 0 Z " fill="#46A2CB" transform="translate(287.1875,207.1875)"/>
<path d="M0 0 C3.16609913 1.05536638 3.76033722 1.7078861 6 4 C7.8780264 5.4606872 9.77624085 6.8955742 11.6875 8.3125 C12.22060791 8.70912842 12.75371582 9.10575684 13.30297852 9.5144043 C14.8672711 10.67812852 16.43359964 11.83911445 18 13 C19.48014582 14.10285375 20.95947676 15.20680323 22.4375 16.3125 C23.01371094 16.74175781 23.58992187 17.17101562 24.18359375 17.61328125 C26.48633051 19.37128458 28.73838693 21.18939274 31 23 C32.58521328 24.23494519 34.17047076 25.46983421 35.7565918 26.70361328 C41.71974408 31.35154853 47.5671197 36.10665339 53.31665039 41.01611328 C56.6559926 43.86737825 60.02743027 46.67055746 63.4375 49.4375 C67.85173549 53.03790151 72.22132405 56.68708354 76.5625 60.375 C77.17085693 60.88732178 77.77921387 61.39964355 78.40600586 61.92749023 C81.02676485 64.16499525 83.07646462 66.11469693 85 69 C83.58735645 70.91974636 82.17008929 72.83577306 80.75 74.75 C80.35425781 75.28882813 79.95851563 75.82765625 79.55078125 76.3828125 C77.22282556 79.51219556 74.75403972 82.25142465 72 85 C70.55622884 86.8752742 69.14141324 88.77305552 67.75 90.6875 C64.9704842 94.46876732 62.10809688 98.09798191 58.9375 101.5625 C55.19224709 105.65840408 52.02039947 110.05330074 48.8046875 114.5703125 C46.76039687 117.32258257 44.45311068 119.6097896 42 122 C40.81725242 123.48735311 39.65203249 124.98873157 38.5 126.5 C35.87293539 129.94020365 33.1049617 132.97674782 30 136 C29.175 136.99 28.35 137.98 27.5 139 C25.13028779 141.84365465 22.6154087 144.3845913 20 147 C18.42321 148.86560797 16.86733771 150.74464014 15.33203125 152.64453125 C14.89246094 153.09183594 14.45289063 153.53914062 14 154 C13.34 154 12.68 154 12 154 C11.773125 154.556875 11.54625 155.11375 11.3125 155.6875 C9.64363942 158.6278734 7.41211335 160.6502353 5 163 C4.99413376 161.96733002 4.98826752 160.93466003 4.98222351 159.87069702 C4.66229853 90.87924387 4.66229853 90.87924387 1.34765625 21.98291016 C0.82812485 14.65955693 0.41470481 7.32990759 0 0 Z " fill="#1E1E1E" transform="translate(915,515)"/>
</svg>
