<?xml version="1.0" encoding="UTF-8"?>
<svg version="1.1" xmlns="http://www.w3.org/2000/svg" width="1280" height="1280">
<path d="M0 0 C3.76704376 0.01709056 7.53345096 0.00688301 11.30047321 -0.0103159 C39.81957128 -0.12048746 68.11061191 1.89084809 96.33300781 6.07861328 C97.61810745 6.26561295 97.61810745 6.26561295 98.9291687 6.45639038 C162.91035534 15.82999682 225.35389602 35.17891784 283.52050781 63.39111328 C284.62765137 63.92349609 285.73479492 64.45587891 286.87548828 65.00439453 C301.90647943 72.25419634 316.43095263 80.14053751 330.73779297 88.72851562 C333.36638687 90.29903014 336.0083496 91.84340489 338.65722656 93.37939453 C351.7668422 101.02828401 364.19110632 109.5480014 376.52050781 118.39111328 C377.3812793 119.00809082 378.24205078 119.62506836 379.12890625 120.26074219 C389.63398195 127.82366064 399.8201263 135.7063611 409.78808594 143.96289062 C412.26361658 146.00373818 414.77048996 148.00538464 417.27050781 150.01611328 C422.26702088 154.10348638 427.0061666 158.43520011 431.73535156 162.82470703 C434.04697798 164.95477513 436.38663761 167.03063086 438.77050781 169.07861328 C442.10544069 171.96567294 445.20727276 175.03097698 448.27050781 178.20361328 C450.23629911 180.11479927 452.24957025 181.89198806 454.32910156 183.67626953 C458.34826234 187.1696977 461.98328348 190.90982024 465.58300781 194.82861328 C466.88875634 196.23769086 468.19475333 197.64653824 469.50097656 199.05517578 C470.16274902 199.77092773 470.82452148 200.48667969 471.50634766 201.22412109 C473.49417035 203.36277736 475.4980141 205.48497716 477.50878906 207.60205078 C484.50194696 214.97203844 491.19518687 222.43310266 497.52050781 230.39111328 C498.49881825 231.58039201 499.4794508 232.76776289 500.46191406 233.95361328 C508.884836 244.1463922 516.81444352 254.647726 524.52050781 265.39111328 C525.15359863 266.27154297 525.78668945 267.15197266 526.43896484 268.05908203 C581.85308205 345.45942308 618.71358612 434.92328963 639.33300781 551.70361328 C639.51573242 552.97253418 639.69845703 554.24145508 639.88671875 555.54882812 C643.45352113 582.25369515 645.03465403 608.94357794 644.91162109 635.87060547 C644.89453054 639.63764923 644.90473808 643.40405643 644.92193699 647.17107868 C645.03210856 675.69017675 643.020773 703.98121738 638.83300781 732.20361328 C638.64600815 733.48871292 638.64600815 733.48871292 638.45523071 734.79977417 C628.07057743 805.68203748 605.09735812 873.17658925 572.74536133 936.95678711 C570.71406206 940.9632192 568.71541534 944.93487451 566.95019531 949.06689453 C562.72946089 958.88067867 557.32896248 968.62784508 550.47363281 976.82861328 C547.67835028 980.49602396 545.319939 984.40950473 542.89550781 988.32861328 C537.37018107 997.21269314 531.4234769 1005.69619 525.20458984 1014.10546875 C523.48265638 1016.44248544 521.77931779 1018.79216597 520.07910156 1021.14501953 C512.28033886 1031.89876937 504.11801878 1042.26542847 495.52050781 1052.39111328 C494.96476074 1053.04595703 494.40901367 1053.70080078 493.83642578 1054.37548828 C486.80965524 1062.62529226 479.60246852 1070.6919931 472.19384766 1078.60009766 C470.33326816 1080.59152036 468.48370718 1082.59290981 466.63378906 1084.59423828 C459.39167663 1092.39829846 452.06071378 1099.88302316 444.10253906 1106.96191406 C441.66700141 1109.16216675 439.29028481 1111.42375296 436.9050293 1113.67822266 C431.17921005 1119.08310884 425.38620296 1124.29321232 419.22753906 1129.20751953 C416.82333282 1131.14684318 414.4804244 1133.1421463 412.14697266 1135.16552734 C344.331241 1193.72884728 259.21289749 1235.17456094 93.20800781 1275.20361328 C91.93908691 1275.38633789 90.67016602 1275.5690625 89.36279297 1275.75732422 C62.65792594 1279.3241266 35.96804316 1280.9052595 9.04101562 1280.78222656 C5.27397187 1280.765136 1.50756467 1280.77534355 -2.25945759 1280.79254246 C-30.77855566 1280.90271403 -59.06959628 1278.89137847 -87.29199219 1274.70361328 C-88.57709183 1274.51661362 -88.57709183 1274.51661362 -89.88815308 1274.32583618 C-153.86933971 1264.95222974 -216.3128804 1245.60330873 -274.47949219 1217.39111328 C-275.58663574 1216.85873047 -276.6937793 1216.32634766 -277.83447266 1215.77783203 C-292.86546381 1208.52803023 -307.38993701 1200.64168905 -321.69677734 1192.05371094 C-324.32537125 1190.48319642 -326.96733398 1188.93882167 -329.61621094 1187.40283203 C-342.72582658 1179.75394255 -355.15009069 1171.23422516 -367.47949219 1162.39111328 C-368.34026367 1161.77413574 -369.20103516 1161.1571582 -370.08789062 1160.52148438 C-380.59296632 1152.95856592 -390.77911068 1145.07586547 -400.74707031 1136.81933594 C-403.22260096 1134.77848838 -405.72947434 1132.77684193 -408.22949219 1130.76611328 C-413.22600526 1126.67874018 -417.96515097 1122.34702645 -422.69433594 1117.95751953 C-425.00596235 1115.82745143 -427.34562199 1113.75159571 -429.72949219 1111.70361328 C-433.06442506 1108.81655362 -436.16625713 1105.75124959 -439.22949219 1102.57861328 C-441.19528349 1100.6674273 -443.20855463 1098.89023851 -445.28808594 1097.10595703 C-449.30724672 1093.61252886 -452.94226785 1089.87240633 -456.54199219 1085.95361328 C-457.84774072 1084.5445357 -459.15373771 1083.13568832 -460.45996094 1081.72705078 C-461.1217334 1081.01129883 -461.78350586 1080.29554687 -462.46533203 1079.55810547 C-464.45315472 1077.4194492 -466.45699847 1075.2972494 -468.46777344 1073.18017578 C-475.46093133 1065.81018812 -482.15417124 1058.34912391 -488.47949219 1050.39111328 C-489.45780263 1049.20183455 -490.43843517 1048.01446368 -491.42089844 1046.82861328 C-499.84382038 1036.63583437 -507.7734279 1026.13450056 -515.47949219 1015.39111328 C-516.11258301 1014.51068359 -516.74567383 1013.63025391 -517.39794922 1012.72314453 C-572.81206643 935.32280348 -609.67257049 845.85893693 -630.29199219 729.07861328 C-630.4747168 727.80969238 -630.65744141 726.54077148 -630.84570312 725.23339844 C-634.41250551 698.52853141 -635.9936384 671.83864863 -635.87060547 644.91162109 C-635.85351491 641.14457733 -635.86372245 637.37817014 -635.88092136 633.61114788 C-635.99109293 605.09204981 -633.97975737 576.80100919 -629.79199219 548.57861328 C-629.60499252 547.29351364 -629.60499252 547.29351364 -629.41421509 545.98245239 C-619.0295618 475.10018908 -596.0563425 407.60563731 -563.7043457 343.82543945 C-561.67304644 339.81900736 -559.67439972 335.84735206 -557.90917969 331.71533203 C-553.68844526 321.90154789 -548.28794686 312.15438149 -541.43261719 303.95361328 C-538.63733466 300.2862026 -536.27892337 296.37272183 -533.85449219 292.45361328 C-528.32916544 283.56953342 -522.38246128 275.08603656 -516.16357422 266.67675781 C-514.44164075 264.33974113 -512.73830217 261.99006059 -511.03808594 259.63720703 C-503.23932323 248.88345719 -495.07700315 238.51679809 -486.47949219 228.39111328 C-485.92374512 227.73626953 -485.36799805 227.08142578 -484.79541016 226.40673828 C-477.76863961 218.1569343 -470.5614529 210.09023346 -463.15283203 202.18212891 C-461.29225253 200.19070621 -459.44269155 198.18931675 -457.59277344 196.18798828 C-450.350661 188.3839281 -443.01969815 180.8992034 -435.06152344 173.8203125 C-432.62598579 171.62005982 -430.24926919 169.3584736 -427.86401367 167.10400391 C-422.13819442 161.69911772 -416.34518734 156.48901424 -410.18652344 151.57470703 C-407.78231719 149.63538338 -405.43940878 147.64008027 -403.10595703 145.61669922 C-335.29022537 87.05337928 -250.17188187 45.60766562 -84.16699219 5.57861328 C-82.89807129 5.39588867 -81.62915039 5.21316406 -80.32177734 5.02490234 C-53.61691032 1.45809996 -26.92702753 -0.12303293 0 0 Z " fill="#1E1E1E" transform="translate(635.4794921875,-0.39111328125)"/>
<path d="M0 0 C1.23363281 0.60908203 1.23363281 0.60908203 2.4921875 1.23046875 C3.47960937 1.70871094 4.46703125 2.18695313 5.484375 2.6796875 C7.56612672 3.71018056 9.64050466 4.75571119 11.70703125 5.81640625 C14.92255887 7.44897427 18.16208607 8.8481625 21.4921875 10.23046875 C22.84678539 10.82549668 24.19949032 11.42484355 25.55078125 12.02734375 C28.02570739 13.13082039 30.50061731 14.23420227 32.97827148 15.33154297 C44.5644608 20.47080331 55.90743458 25.89018149 67.078125 31.87890625 C71.01391111 33.98851476 74.9883549 36.00376682 78.9921875 37.98046875 C94.36949019 45.60523102 109.74142588 53.36835068 124.63549805 61.90478516 C128.28945824 63.99866531 131.96721326 66.03470809 135.6796875 68.0234375 C145.39289328 73.23086846 154.88793897 78.59809968 164.14746094 84.578125 C171.63301894 89.39094086 179.31507254 93.84246347 187.04638672 98.24755859 C192.64324639 101.46293697 197.99116016 104.86072865 203.22460938 108.64135742 C206.36436655 110.84168897 209.64508682 112.76750561 212.9453125 114.71484375 C220.12730793 118.98879195 227.09661464 123.60404847 234.0546875 128.23046875 C234.9377356 128.81683105 234.9377356 128.81683105 235.83862305 129.41503906 C237.04923319 130.22354955 238.25136151 131.04487662 239.44555664 131.87744141 C241.54816133 133.30947155 241.54816133 133.30947155 244.11499023 134.65771484 C247.95189828 136.90856319 250.86790998 138.62556455 252.52124023 142.87597656 C253.07353177 146.22165641 253.29519283 149.46688701 253.4296875 152.85546875 C253.56677706 154.82908571 253.70388155 156.80270166 253.84136963 158.77629089 C253.98536138 160.97308122 254.10569895 163.17018779 254.22119141 165.36865234 C254.5078955 170.71958947 254.8961078 176.06193355 255.28515625 181.40625 C257.28736877 209.35735173 258.61721628 237.27262676 259.1171875 265.29296875 C259.13964539 266.52939117 259.16210327 267.7658136 259.1852417 269.03970337 C259.51093281 287.84078536 259.48908941 306.61791016 259.1171875 325.41796875 C259.09585754 326.51062042 259.07452759 327.60327209 259.05255127 328.72903442 C258.9269697 334.88515487 258.76701178 341.0393224 258.57727051 347.19378662 C258.48807579 350.37721902 258.42887698 353.56050097 258.37011719 356.74462891 C258.3154531 358.84019559 258.25982398 360.93573738 258.203125 363.03125 C258.19141266 363.99927048 258.17970032 364.96729095 258.16763306 365.96464539 C257.95263073 372.59778391 257.95263073 372.59778391 255.57275391 375.86791992 C253.4921875 377.23046875 253.4921875 377.23046875 251.4921875 377.23046875 C251.4921875 378.22046875 251.4921875 379.21046875 251.4921875 380.23046875 C249.69921875 381.84375 249.69921875 381.84375 247.3046875 383.54296875 C244.44913002 385.6611757 241.94777564 387.62375098 239.7421875 390.41796875 C237.52375791 393.19100574 235.28641819 395.06493997 232.4921875 397.23046875 C231.7290625 397.99359375 230.9659375 398.75671875 230.1796875 399.54296875 C228.01143107 401.71122518 225.82200558 403.68347079 223.4921875 405.66796875 C220.65559279 408.11512374 218.35365604 410.61096273 216.03515625 413.5625 C213.09569643 416.74009327 209.6038953 419.31099112 206.2109375 421.984375 C203.4579273 424.2587728 200.99393217 426.68476372 198.4921875 429.23046875 C190.82163596 436.40361251 182.74699749 443.05569876 174.52734375 449.5859375 C168.92082637 454.05529529 168.92082637 454.05529529 163.9921875 459.23046875 C159.58740084 464.51621275 153.96874655 469.18316175 148.03125 472.6796875 C144.87446229 474.6077563 142.151936 476.9393084 139.3671875 479.35546875 C138.2180919 480.34059542 137.06834115 481.32495836 135.91796875 482.30859375 C135.05872803 483.04432617 135.05872803 483.04432617 134.18212891 483.79492188 C130.78567369 486.68009331 127.32137491 489.48232658 123.86328125 492.29296875 C121.92703389 493.87514123 120.01752825 495.48074994 118.1171875 497.10546875 C115.4921875 499.23046875 115.4921875 499.23046875 113.2265625 500.5234375 C109.28806557 502.98218487 105.9518134 506.04182307 102.484375 509.11523438 C99.72312895 511.51160149 97.04055426 513.58192784 93.8359375 515.35546875 C90.93612266 516.98153315 88.77560822 518.54074268 86.3671875 520.79296875 C83.53710957 523.35196641 80.80684456 525.32454094 77.4921875 527.23046875 C74.78656541 529.17898618 72.14230635 531.20736508 69.4921875 533.23046875 C64.90803884 536.71373368 60.28422925 540.03577425 55.4921875 543.23046875 C54.6465625 543.91109375 53.8009375 544.59171875 52.9296875 545.29296875 C50.4921875 547.23046875 50.4921875 547.23046875 48.15234375 548.6328125 C45.50422107 550.22324154 43.00734814 551.9384168 40.4921875 553.73046875 C38.83530879 554.91099483 37.16863976 556.07790782 35.4921875 557.23046875 C34.6878125 557.81828125 33.8834375 558.40609375 33.0546875 559.01171875 C29.63338311 560.6389245 28.11467514 560.28647068 24.4921875 559.23046875 C21.81545121 558.09023192 19.25207366 556.77507362 16.6796875 555.41796875 C15.24684921 554.68082138 13.81326163 553.94512853 12.37890625 553.2109375 C11.36062744 552.68765869 11.36062744 552.68765869 10.32177734 552.15380859 C8.24148889 551.10394858 6.13467997 550.14631176 3.9921875 549.23046875 C-2.26410105 546.52376327 -8.31104278 543.36406465 -14.39501953 540.29492188 C-17.10073385 538.93174711 -19.81047811 537.57673736 -22.52099609 536.22314453 C-23.85647958 535.5558951 -25.19143282 534.88758345 -26.52587891 534.21826172 C-29.73902617 532.60741011 -32.95656933 531.00829388 -36.19140625 529.44140625 C-45.56629849 524.87348754 -54.65355353 519.85303533 -63.73071289 514.72070312 C-70.06391645 511.14327712 -76.43054828 507.64565152 -82.84912109 504.22387695 C-91.8363668 499.42937737 -100.57883469 494.44218067 -109.1262207 488.90112305 C-117.0215792 483.8127061 -125.1705167 479.1796188 -133.35107422 474.56884766 C-139.20587021 471.24301962 -144.81122685 467.76335563 -150.26318359 463.80810547 C-153.43329892 461.57999091 -156.75816173 459.64696169 -160.09375 457.6796875 C-163.09589868 455.87742672 -165.99740354 453.95192853 -168.8984375 451.9921875 C-170.94481048 450.6105794 -172.99690112 449.23944898 -175.0546875 447.875 C-181.44323872 443.63706625 -187.79412999 439.36342394 -194.0546875 434.9375 C-196.82307347 433.01109129 -199.6307916 431.15127421 -202.4453125 429.29296875 C-217.31069712 419.42758413 -217.31069712 419.42758413 -221.5078125 415.23046875 C-221.88459299 412.35177508 -222.14379141 409.54874812 -222.32421875 406.65625 C-222.38560532 405.7813945 -222.44699188 404.906539 -222.51023865 404.00517273 C-222.63963635 402.13663593 -222.76458516 400.26778667 -222.88549805 398.39868164 C-223.06491265 395.62640603 -223.2566239 392.85523432 -223.45117188 390.08398438 C-228.07049359 323.01279657 -227.18477509 255.62340319 -222.8359375 188.56982422 C-222.6293237 185.37032807 -222.4604698 182.17787747 -222.3671875 178.97314453 C-222.04435949 170.96409539 -222.04435949 170.96409539 -219.28515625 167.19140625 C-218.36863281 166.54429687 -217.45210938 165.8971875 -216.5078125 165.23046875 C-215.17943359 164.13605469 -215.17943359 164.13605469 -213.82421875 163.01953125 C-212.46103516 161.94832031 -212.46103516 161.94832031 -211.0703125 160.85546875 C-207.27558801 157.79439099 -204.12811624 154.78251222 -201.10546875 150.984375 C-198.3747112 147.9865507 -195.1094104 145.65098306 -191.875 143.22265625 C-189.35737762 141.10386514 -187.55341054 138.79945223 -185.5078125 136.23046875 C-183.92224762 134.83033434 -182.29363746 133.47795074 -180.6328125 132.16796875 C-175.44861889 128.01503946 -170.39301072 123.73580812 -165.36767578 119.39233398 C-164.80806152 118.90966064 -164.24844727 118.4269873 -163.671875 117.9296875 C-163.13594727 117.46739746 -162.60001953 117.00510742 -162.04785156 116.52880859 C-160.63448741 115.33726284 -159.17828895 114.19701557 -157.71875 113.0625 C-155.31055392 111.24523685 -155.31055392 111.24523685 -153.5078125 108.23046875 C-152.5178125 108.23046875 -151.5278125 108.23046875 -150.5078125 108.23046875 C-150.29640625 107.67359375 -150.085 107.11671875 -149.8671875 106.54296875 C-148.04412659 103.44166974 -145.52137793 101.4548019 -142.7578125 99.23046875 C-142.24476563 98.80507813 -141.73171875 98.3796875 -141.203125 97.94140625 C-138.72285862 95.90983128 -136.21352596 94.03672689 -133.53515625 92.2734375 C-130.05750523 89.92658397 -126.97039033 87.30453551 -123.8203125 84.54296875 C-122.58938633 83.47558763 -121.35760501 82.40919196 -120.125 81.34375 C-119.21379395 80.55605225 -119.21379395 80.55605225 -118.28417969 79.75244141 C-114.09397255 76.16231616 -109.80263885 72.69426366 -105.5078125 69.23046875 C-104.68410156 68.54984375 -103.86039063 67.86921875 -103.01171875 67.16796875 C-100.5078125 65.23046875 -100.5078125 65.23046875 -98.0703125 63.79296875 C-94.95567204 61.89379774 -92.26075271 59.60610243 -89.5078125 57.23046875 C-86.00292498 54.20594653 -82.50239549 51.58361796 -78.5078125 49.23046875 C-76.84132787 47.94429123 -75.19566927 46.63074264 -73.5703125 45.29296875 C-69.99253206 42.38834107 -66.35682202 39.76731593 -62.5078125 37.23046875 C-60.991875 35.96203125 -60.991875 35.96203125 -59.4453125 34.66796875 C-56.87087013 32.53172934 -54.37582175 30.92185882 -51.5078125 29.23046875 C-50.6828125 28.57046875 -49.8578125 27.91046875 -49.0078125 27.23046875 C-46.5078125 25.23046875 -46.5078125 25.23046875 -44.17578125 23.83984375 C-41.43470542 22.18636902 -38.89484134 20.3818933 -36.3203125 18.48046875 C-29.16404643 13.23382624 -21.94162636 8.07860822 -14.5078125 3.23046875 C-13.90582031 2.74964844 -13.30382812 2.26882813 -12.68359375 1.7734375 C-7.9710778 -1.73548892 -5.43605629 -2.30421071 0 0 Z " fill="#FFFFFF" transform="translate(623.5078125,345.76953125)"/>
<path d="M0 0 C36.08443214 -0.87997396 79.3291934 3.85151035 107.05126953 29.765625 C107.75251953 30.52875 108.45376953 31.291875 109.17626953 32.078125 C109.93939453 32.8 110.70251953 33.521875 111.48876953 34.265625 C113.17626953 36.078125 113.17626953 36.078125 113.17626953 38.078125 C114.04251953 38.3875 114.04251953 38.3875 114.92626953 38.703125 C118.05599644 40.61573589 119.26686204 42.95364002 121.17626953 46.078125 C121.56814453 46.67882812 121.96001953 47.27953125 122.36376953 47.8984375 C132.79864636 64.0072786 139.47747733 83.68029292 139.23876953 103.015625 C139.22974609 103.97339844 139.22072266 104.93117188 139.21142578 105.91796875 C139.19402344 106.98724609 139.19402344 106.98724609 139.17626953 108.078125 C140.69220703 107.583125 140.69220703 107.583125 142.23876953 107.078125 C154.24764354 104.14449848 166.36102491 106.46976614 178.17626953 109.078125 C177.55364676 105.76517371 176.92772716 102.4528531 176.30126953 99.140625 C176.12724609 98.21443359 175.95322266 97.28824219 175.77392578 96.33398438 C173.46586753 83.91243019 173.46586753 83.91243019 169.17626953 72.078125 C168.50334111 70.39311223 167.83706067 68.70543439 167.17626953 67.015625 C165.68388549 63.25596521 164.05958136 59.65641747 162.17626953 56.078125 C162.83626953 55.418125 163.49626953 54.758125 164.17626953 54.078125 C222.50936092 130.19839009 263.82628877 218.92327758 290.98876953 356.390625 C291.26285645 358.29400635 291.26285645 358.29400635 291.54248047 360.23583984 C295.10928285 386.94070687 296.69041575 413.63058966 296.56738281 440.55761719 C296.55029225 444.32466095 296.5604998 448.09106815 296.57769871 451.8580904 C296.68787028 480.37718847 294.67653472 508.66822909 290.48876953 536.890625 C290.30176987 538.17572464 290.30176987 538.17572464 290.11099243 539.48678589 C279.84811092 609.53787471 257.51265482 677.16382854 225.17626953 740.078125 C224.12567637 736.9263455 224.19799168 736.0823755 224.91845703 732.98046875 C225.18722656 731.77680664 225.18722656 731.77680664 225.46142578 730.54882812 C225.65607422 729.71287109 225.85072266 728.87691406 226.05126953 728.015625 C231.29475479 705.32399053 230.78478414 680.84936339 226.17626953 658.078125 C225.98291016 657.1205127 225.78955078 656.16290039 225.59033203 655.17626953 C218.95345083 623.37966814 206.78740466 593.4724666 191.17626953 565.078125 C190.75313477 564.30065918 190.33 563.52319336 189.89404297 562.72216797 C175.56351367 536.3915859 158.95777304 511.2665921 140.43701172 487.68603516 C139.11709052 486.00264998 137.80639836 484.31235047 136.49658203 482.62109375 C130.70713979 475.16855133 124.73975196 467.8955338 118.59423828 460.734375 C117.1361548 459.03126922 115.68680101 457.32103226 114.23876953 455.609375 C108.31037972 448.61999315 102.23167038 441.80388732 95.98095703 435.1015625 C93.48356547 432.4215587 91.04380415 429.69448078 88.61376953 426.953125 C84.36863362 422.19295421 79.85184071 417.75659154 75.26611328 413.328125 C73.17626953 411.078125 73.17626953 411.078125 73.17626953 409.078125 C72.51626953 409.078125 71.85626953 409.078125 71.17626953 409.078125 C72.81697149 404.17520861 75.59791463 400.24569383 78.48876953 396.015625 C79.56391229 394.4211956 80.63809365 392.82611759 81.71142578 391.23046875 C82.27361816 390.39628418 82.83581055 389.56209961 83.41503906 388.70263672 C86.44932391 384.1810728 89.44357481 379.6338366 92.42626953 375.078125 C92.99901611 374.21179443 93.5717627 373.34546387 94.16186523 372.45288086 C94.6873999 371.64858643 95.21293457 370.84429199 95.75439453 370.015625 C96.22264648 369.30277344 96.69089844 368.58992188 97.17333984 367.85546875 C98.34008359 366.12795306 98.34008359 366.12795306 98.17626953 364.078125 C98.83626953 364.078125 99.49626953 364.078125 100.17626953 364.078125 C100.17626953 363.088125 100.17626953 362.098125 100.17626953 361.078125 C100.83626953 361.078125 101.49626953 361.078125 102.17626953 361.078125 C102.28874023 360.3469043 102.40121094 359.61568359 102.51708984 358.86230469 C103.20256036 355.96708031 104.16673369 354.05274327 105.72314453 351.53125 C106.23876953 350.685625 106.75439453 349.84 107.28564453 348.96875 C107.82705078 348.09734375 108.36845703 347.2259375 108.92626953 346.328125 C113.91623914 338.20719407 118.76919539 330.06950491 122.98876953 321.515625 C123.48763672 320.50886719 123.98650391 319.50210937 124.50048828 318.46484375 C125.05349609 317.34722656 125.60650391 316.22960937 126.17626953 315.078125 C127.5488155 312.32689649 128.92511465 309.57754974 130.30126953 306.828125 C131.27237991 304.88614527 132.24330051 302.9440813 133.2121582 301.00097656 C133.84720938 299.73441209 134.4878703 298.47064242 135.13452148 297.20996094 C138.03585896 291.51912729 140.5852599 285.69255539 143.11376953 279.828125 C143.77626709 278.297323 143.77626709 278.297323 144.45214844 276.7355957 C148.84161808 266.57430588 153.1006019 256.36975499 157.17626953 246.078125 C155.72220703 245.94857422 155.72220703 245.94857422 154.23876953 245.81640625 C141.03962895 244.4935007 128.41963984 241.84951896 117.19189453 234.41015625 C115.24468337 233.12333647 113.28218099 232.07890725 111.17626953 231.078125 C110.90814453 231.75875 110.64001953 232.439375 110.36376953 233.140625 C107.05660097 241.32151566 103.22729515 249.1474165 99.22460938 257.00488281 C98.1899613 259.05104756 97.17412295 261.10542389 96.16455078 263.1640625 C92.29122286 271.0445104 88.19427107 278.7148308 83.74267578 286.28515625 C82.08723189 289.03149384 82.08723189 289.03149384 81.17626953 292.078125 C80.51626953 292.078125 79.85626953 292.078125 79.17626953 292.078125 C78.95841797 293.05007813 78.74056641 294.02203125 78.51611328 295.0234375 C77.1250464 299.86605113 74.48305664 303.7716005 71.73876953 307.953125 C71.20525879 308.78102539 70.67174805 309.60892578 70.12207031 310.46191406 C69.01816049 312.17272971 67.91039349 313.88106251 66.79882812 315.58691406 C65.28647892 317.90891396 63.78561626 320.23779863 62.28955078 322.5703125 C56.35577294 331.80868674 50.32103287 340.97875271 44.17626953 350.078125 C43.45528076 351.14619385 43.45528076 351.14619385 42.71972656 352.23583984 C41.23065673 354.43642379 39.73583566 356.63297475 38.23876953 358.828125 C37.77792969 359.50818604 37.31708984 360.18824707 36.84228516 360.88891602 C36.40722656 361.52369873 35.97216797 362.15848145 35.52392578 362.8125 C34.95170288 363.65119629 34.95170288 363.65119629 34.36791992 364.50683594 C33.09442174 366.18604805 31.69688478 367.62197747 30.17626953 369.078125 C28.77693506 368.02024033 27.38198286 366.9565582 25.98876953 365.890625 C25.21146484 365.29894531 24.43416016 364.70726562 23.63330078 364.09765625 C20.96631695 361.90555666 18.59833316 359.53722324 16.17626953 357.078125 C9.91724718 351.15551403 3.57524763 345.47399541 -3.21044922 340.16015625 C-6.22205219 337.7607775 -9.14816547 335.26819569 -12.07373047 332.765625 C-18.83624169 327.00245044 -25.79491897 321.5115616 -32.82373047 316.078125 C-33.37561035 315.65144531 -33.92749023 315.22476562 -34.49609375 314.78515625 C-37.19386381 312.70193613 -39.89565595 310.62405785 -42.60107422 308.55078125 C-44.78530096 306.87689407 -46.9645833 305.19686271 -49.14013672 303.51171875 C-50.24287048 302.65868503 -51.34573409 301.80581913 -52.44873047 300.953125 C-52.98296631 300.53973877 -53.51720215 300.12635254 -54.06762695 299.70043945 C-58.48628007 296.29862273 -63.00785445 293.05655487 -67.58154297 289.8671875 C-72.06546424 286.28942454 -73.19362802 283.36805057 -73.87425232 277.81129456 C-73.9645723 276.97509079 -74.05489227 276.13888702 -74.14794922 275.27734375 C-74.36952083 273.43895181 -74.5912059 271.60057355 -74.81298828 269.76220703 C-74.92598267 268.78753479 -75.03897705 267.81286255 -75.15539551 266.80865479 C-82.18846681 206.6632284 -93.68906252 146.28505167 -111.31001282 88.30189514 C-112.82373047 83.28218117 -112.82373047 83.28218117 -112.82373047 81.078125 C-113.49275391 81.46484375 -114.16177734 81.8515625 -114.85107422 82.25 C-124.29458438 87.37104444 -134.97033294 91.078125 -145.82373047 91.078125 C-145.57703613 91.85631592 -145.3303418 92.63450684 -145.07617188 93.4362793 C-133.21134771 131.35458575 -125.76922167 170.91972557 -119.38623047 210.078125 C-119.22469482 211.06545624 -119.06315918 212.05278748 -118.89672852 213.07003784 C-116.52046417 227.6978812 -114.57576307 242.36315219 -112.82373047 257.078125 C-119.58332416 253.23393875 -126.15762056 249.29994639 -132.47216797 244.75390625 C-138.10234269 240.74170533 -143.94002142 237.17622079 -149.90576172 233.69726562 C-153.56090891 231.53393738 -157.04486973 229.23176884 -160.49560547 226.75390625 C-166.36834173 222.60046877 -172.55681815 219.09742291 -178.82373047 215.578125 C-180.68706135 214.52426706 -182.54937327 213.46862298 -184.41166687 212.41293335 C-185.68030881 211.69394695 -186.94928175 210.97554426 -188.21858215 210.25772095 C-194.50776 206.69922186 -200.75933742 203.07664595 -207.01123047 199.453125 C-232.23772038 184.87888103 -257.61005145 170.77334355 -283.98388672 158.37109375 C-288.2559178 156.35851104 -292.48461476 154.27132103 -296.69873047 152.140625 C-317.94750221 141.41950524 -317.94750221 141.41950524 -339.82373047 132.078125 C-337.0700762 129.9801027 -334.2680568 127.99601289 -331.38623047 126.078125 C-330.64501953 125.583125 -329.90380859 125.088125 -329.14013672 124.578125 C-321.58855653 119.68806295 -313.70314335 115.27775233 -305.88623047 110.828125 C-303.17555241 109.27916611 -300.50032804 107.68486732 -297.82373047 106.078125 C-291.68644956 102.46090078 -285.53149193 98.88503636 -279.28857422 95.453125 C-276.78315376 94.0554895 -274.30017819 92.62141739 -271.81738281 91.18408203 C-264.94262674 87.21237246 -257.96388342 83.55587191 -250.82373047 80.078125 C-248.82274086 79.08010667 -246.82263097 78.08032099 -244.82373047 77.078125 C-240.82373047 75.078125 -236.82373047 73.078125 -232.82373047 71.078125 C-232.16244141 70.74167969 -231.50115234 70.40523438 -230.81982422 70.05859375 C-220.32751641 64.75030266 -209.67706701 59.70510795 -198.90185547 54.99609375 C-196.48621829 53.92903597 -194.09473081 52.81355206 -191.69873047 51.703125 C-186.05204742 49.12855343 -180.30353124 46.83610079 -174.53466797 44.5546875 C-171.17899013 43.21948095 -167.84209864 41.84883583 -164.51123047 40.453125 C-146.30066281 32.83292757 -127.55893993 25.54431174 -108.37060547 20.78125 C-106.13272201 20.16342941 -103.96559737 19.45921427 -101.76904297 18.7109375 C-69.66432666 7.91255841 -33.8834275 0.93746298 0 0 Z " fill="#FEFEFE" transform="translate(983.82373046875,194.921875)"/>
<path d="M0 0 C0 0.33 0 0.66 0 1 C-1.76150391 1.32871094 -1.76150391 1.32871094 -3.55859375 1.6640625 C-40.20924746 8.76788361 -69.25284569 27.47382848 -96 53 C-97.30904297 54.24716797 -97.30904297 54.24716797 -98.64453125 55.51953125 C-103.66708301 60.41864088 -108.25441251 65.52109172 -112.62109375 71.01171875 C-114.25556393 73.06487094 -115.90306379 75.08080419 -117.59765625 77.08203125 C-132.418244 94.78923988 -144.89464127 114.79576173 -156 135 C-156.53544434 135.96164063 -157.07088867 136.92328125 -157.62255859 137.9140625 C-177.90132124 174.39183673 -193.06595299 212.75515749 -207 252 C-208.27746094 251.76925781 -209.55492187 251.53851563 -210.87109375 251.30078125 C-241.09382621 245.90707361 -271.38344046 241.43652958 -302 239 C-301.83757812 239.83015625 -301.67515625 240.6603125 -301.5078125 241.515625 C-300.95547173 245.30553247 -300.86743313 248.92116529 -300.875 252.75 C-300.87242187 254.06484375 -300.86984375 255.3796875 -300.8671875 256.734375 C-301 260 -301 260 -302 262 C-300.622677 262.07782715 -300.622677 262.07782715 -299.2175293 262.15722656 C-290.36072574 262.6968419 -281.60859714 263.5509094 -272.8125 264.75 C-271.53310547 264.92265381 -270.25371094 265.09530762 -268.93554688 265.27319336 C-250.84587636 267.75758832 -232.79375595 270.88603011 -215 275 C-216.42933133 283.25737933 -218.6646908 291.26962757 -220.90945435 299.33172607 C-237.90800877 360.65171347 -248.72721962 423.29864577 -255.68379211 486.50842285 C-256.38397771 492.83312382 -257.09898074 499.15598894 -257.9609375 505.4609375 C-258.09419434 506.44626465 -258.22745117 507.4315918 -258.36474609 508.44677734 C-259.41571641 512.67085405 -261.83549618 515.15664632 -265 518 C-265.845625 518.886875 -266.69125 519.77375 -267.5625 520.6875 C-270 523 -270 523 -272.40234375 524.8359375 C-275.02516756 527.02096666 -276.93149613 529.23092941 -279 531.9375 C-282.46574481 536.36559047 -285.90027734 540.40037442 -290.39453125 543.82421875 C-293.01786572 546.01491935 -294.92909771 548.22779116 -297 550.9375 C-299.8159216 554.54589485 -302.71621138 557.80496242 -306 561 C-307.7009816 562.97294086 -309.34537072 564.98761304 -311 567 C-311.66 567.66 -312.32 568.32 -313 569 C-315.77054506 572.14258968 -318.47407536 575.33064137 -321.0625 578.625 C-323 581 -323 581 -325.3125 583.25 C-328.2654323 586.27160514 -330.73797729 589.50108762 -333.296875 592.85546875 C-335.34847833 595.43879497 -337.63673558 597.70238181 -340 600 C-341.01501628 601.32193787 -342.0177009 602.65357278 -343 604 C-341.98292969 604.61875 -341.98292969 604.61875 -340.9453125 605.25 C-334.94184803 608.97514139 -329.49035481 612.91461256 -324.19140625 617.59375 C-322.14520832 619.18447604 -322.14520832 619.18447604 -319.94140625 619.00390625 C-317.28902465 617.63235279 -316.09675813 615.86085561 -314.375 613.4375 C-313.29461813 611.92543716 -312.17853145 610.43687948 -311 609 C-310.34 609 -309.68 609 -309 609 C-309 608.01 -309 607.02 -309 606 C-307.38025441 604.28769752 -305.7041054 602.62836738 -304 601 C-303.175 600.01 -302.35 599.02 -301.5 598 C-299.13139261 595.15767113 -296.61399777 592.61399777 -294 590 C-293.175 589.01 -292.35 588.02 -291.5 587 C-289.13139261 584.15767113 -286.61399777 581.61399777 -284 579 C-283.175 578.01 -282.35 577.02 -281.5 576 C-278.45082438 572.34098926 -275.3427434 569.03287954 -271.5625 566.125 C-268.73948048 563.78395942 -266.54479681 561.22506001 -264.234375 558.390625 C-263.82703125 557.93171875 -263.4196875 557.4728125 -263 557 C-262.67 557 -262.34 557 -262 557 C-262.02963837 557.5934169 -262.05927673 558.1868338 -262.08981323 558.79823303 C-263.26175451 583.56249227 -263.15389028 608.33592201 -263.13037109 633.12182617 C-263.12465247 639.23166864 -263.12798072 645.34146735 -263.13394356 651.45130825 C-263.13759122 656.23629576 -263.13639185 661.02127322 -263.13381577 665.80626106 C-263.13315924 668.05723132 -263.13392902 670.30820256 -263.13629532 672.55917168 C-263.14689928 685.46146412 -262.90332872 698.3059658 -262.22018433 711.1910553 C-261.88470812 717.79414547 -261.90734171 724.39037541 -262 731 C-266.5156958 728.4960769 -270.34830274 725.3994977 -274.3125 722.125 C-275.73950453 720.955633 -277.16659022 719.78636502 -278.59375 718.6171875 C-279.32207031 718.01874023 -280.05039062 717.42029297 -280.80078125 716.80371094 C-283.61907494 714.49225959 -286.44863847 712.19490479 -289.27954102 709.89892578 C-291.29066323 708.26771173 -293.29984894 706.63414037 -295.30859375 705 C-297.56811684 703.16221588 -299.83115566 701.32920603 -302.09765625 699.5 C-307.38111165 695.21973233 -312.47955841 690.80070499 -317.49609375 686.2109375 C-320.92497969 683.18324726 -324.52588841 680.39951575 -328.1640625 677.62890625 C-328.76992188 677.09136719 -329.37578125 676.55382812 -330 676 C-330 675.34 -330 674.68 -330 674 C-330.59312988 673.72905518 -331.18625977 673.45811035 -331.79736328 673.17895508 C-333.96888852 672.01665233 -335.46622083 670.82830937 -337.2421875 669.13671875 C-338.12970703 668.30043945 -338.12970703 668.30043945 -339.03515625 667.44726562 C-339.64230469 666.86654297 -340.24945313 666.28582031 -340.875 665.6875 C-342.07929834 664.54406404 -343.28501357 663.40211841 -344.4921875 662.26171875 C-345.07452148 661.7104834 -345.65685547 661.15924805 -346.25683594 660.59130859 C-347.93734745 659.05719459 -349.6690201 657.62816947 -351.4453125 656.20703125 C-352.28835938 655.47871094 -353.13140625 654.75039063 -354 654 C-354 653.34 -354 652.68 -354 652 C-354.58097946 651.74401031 -355.16195892 651.48802063 -355.76054382 651.22427368 C-358.22035393 649.87953615 -359.85303277 648.39425732 -361.83129883 646.41162109 C-362.93813774 645.30939713 -362.93813774 645.30939713 -364.06733704 644.18490601 C-364.85593613 643.3891214 -365.64453522 642.59333679 -366.45703125 641.7734375 C-367.68881355 640.54096786 -367.68881355 640.54096786 -368.94548035 639.28359985 C-370.68355424 637.54250483 -372.41919699 635.79898001 -374.15258789 634.05322266 C-376.7868157 631.40086111 -379.42883374 628.75646643 -382.07226562 626.11328125 C-383.76349104 624.41713538 -385.45426079 622.72053502 -387.14453125 621.0234375 C-387.92705765 620.23979828 -388.70958405 619.45615906 -389.51582336 618.64877319 C-393.66346714 614.46572246 -397.66329383 610.20662842 -401.50236511 605.73794556 C-403.77440552 603.10133327 -406.13808954 600.55642073 -408.5 598 C-426.79448462 578.19891077 -443.40584798 556.96960487 -459 535 C-459.42555176 534.40300293 -459.85110352 533.80600586 -460.28955078 533.19091797 C-466.05434392 525.08499546 -471.42842971 516.76902379 -476.60498047 508.27978516 C-477.56370915 506.71300034 -478.52926806 505.15038095 -479.50048828 503.59130859 C-489.00372487 488.31560401 -496.81105297 472.46782366 -504 456 C-504.37382812 455.14954102 -504.74765625 454.29908203 -505.1328125 453.42285156 C-519.48220546 420.30343574 -527.44770661 380.27604747 -517 345 C-516.69964844 343.96359375 -516.39929688 342.9271875 -516.08984375 341.859375 C-507.19356707 314.90096081 -486.03826944 294.87487065 -461.36865234 282.08227539 C-443.26230795 273 -443.26230795 273 -437 273 C-437.20496094 272.17757813 -437.40992188 271.35515625 -437.62109375 270.5078125 C-437.89050781 269.39148438 -438.15992188 268.27515625 -438.4375 267.125 C-438.70433594 266.03445313 -438.97117187 264.94390625 -439.24609375 263.8203125 C-440.15209588 259.2292758 -440.60598971 254.65883404 -441 250 C-471.11770303 259.3467159 -500.24272453 272.41835672 -522 296 C-522.66 295.67 -523.32 295.34 -524 295 C-517.93608774 284.98994093 -511.54984315 275.39453287 -504.52001953 266.03955078 C-502.88890015 263.85092706 -501.28434941 261.64451328 -499.68359375 259.43359375 C-491.83683622 248.61982598 -483.64736044 238.18439484 -475 228 C-474.16637939 227.01773438 -474.16637939 227.01773438 -473.31591797 226.015625 C-466.28914743 217.76582102 -459.08196071 209.69912018 -451.67333984 201.79101562 C-449.81276035 199.79959292 -447.96319937 197.79820347 -446.11328125 195.796875 C-438.87116882 187.99281482 -431.54020596 180.50809012 -423.58203125 173.42919922 C-421.1464936 171.22894654 -418.769777 168.96736032 -416.38452148 166.71289062 C-410.65870223 161.30800444 -404.86569515 156.09790096 -398.70703125 151.18359375 C-396.30282501 149.2442701 -393.95991659 147.24896699 -391.62646484 145.22558594 C-323.81073318 86.662266 -238.69238968 45.21655234 0 0 Z " fill="#FEFEFE" transform="translate(624,0)"/>
<path d="M0 0 C1.05059317 3.1517795 0.97827786 3.9957495 0.2578125 7.09765625 C0.07863281 7.90009766 -0.10054688 8.70253906 -0.28515625 9.52929688 C-0.47980469 10.36525391 -0.67445312 11.20121094 -0.875 12.0625 C-6.11848526 34.75413447 -5.60851461 59.22876161 -1 82 C-0.70996094 83.43641846 -0.70996094 83.43641846 -0.4140625 84.90185547 C6.22281871 116.69845686 18.38886487 146.6056584 34 175 C34.42313477 175.77746582 34.84626953 176.55493164 35.28222656 177.35595703 C49.61275586 203.6865391 66.21849649 228.8115329 84.73925781 252.39208984 C86.05917901 254.07547502 87.36987117 255.76577453 88.6796875 257.45703125 C94.46912974 264.90957367 100.43651757 272.1825912 106.58203125 279.34375 C108.04011474 281.04685578 109.48946852 282.75709274 110.9375 284.46875 C116.86588981 291.45813185 122.94459915 298.27423768 129.1953125 304.9765625 C131.69270406 307.6565663 134.13246538 310.38364422 136.5625 313.125 C140.80763591 317.88517079 145.32442882 322.32153346 149.91015625 326.75 C152 329 152 329 152 331 C152.5775 331.2475 153.155 331.495 153.75 331.75 C156.32939979 333.18299988 158.06121592 334.78424676 160 337 C160 337.66 160 338.32 160 339 C160.99 339.33 161.98 339.66 163 340 C163 340.66 163 341.32 163 342 C163.59458008 342.2678833 164.18916016 342.5357666 164.80175781 342.81176758 C167.02239757 344.01210673 168.4243607 345.20702998 170.171875 347.01171875 C170.74945557 347.60098145 171.32703613 348.19024414 171.92211914 348.79736328 C172.52531982 349.4211084 173.12852051 350.04485352 173.75 350.6875 C178.00236028 355.01346826 182.24791778 359.2401712 186.87890625 363.1640625 C189.81697752 365.70714445 192.65303837 368.35578815 195.5 371 C199.60759434 374.80940131 203.74370742 378.56888392 207.984375 382.23046875 C210.48543664 384.42616821 212.92622655 386.6836708 215.375 388.9375 C219.57503033 392.76829689 223.88262414 396.37251076 228.3515625 399.8828125 C231.37192461 402.29732026 234.31173728 404.79963936 237.25 407.3125 C244.01258743 413.0755918 250.97118286 418.56655903 258 424 C258.55187988 424.42667969 259.10375977 424.85335938 259.67236328 425.29296875 C262.37013334 427.37618887 265.07192548 429.45406715 267.77734375 431.52734375 C269.96157049 433.20123093 272.14085284 434.88126229 274.31640625 436.56640625 C275.41914002 437.41943997 276.52200362 438.27230587 277.625 439.125 C278.15923584 439.53838623 278.69347168 439.95177246 279.24389648 440.37768555 C283.6625496 443.77950227 288.18412398 447.02157013 292.7578125 450.2109375 C297.24173377 453.78870046 298.36989755 456.71007443 299.05052185 462.26683044 C299.14084183 463.10303421 299.2311618 463.93923798 299.32421875 464.80078125 C299.54579036 466.63917319 299.76747543 468.47755145 299.98925781 470.31591797 C300.1022522 471.29059021 300.21524658 472.26526245 300.33166504 473.26947021 C307.98833985 538.74782971 321.22913353 603.94485346 341.20458984 666.79516602 C341.45126404 667.57377991 341.69793823 668.3523938 341.9520874 669.15460205 C342.4099042 670.59492941 342.87154735 672.03404913 343.33795166 673.47161865 C344.55672663 677.29454816 345.44278884 681.0261237 346 685 C341.72014304 687.86172975 337.35728536 689.38141132 332.5 690.9375 C331.70045898 691.19837402 330.90091797 691.45924805 330.07714844 691.72802734 C323.40791429 693.89452605 316.72127293 696.0004213 310 698 C308.906875 698.32742188 307.81375 698.65484375 306.6875 698.9921875 C298.1797192 701.48651414 289.61064046 703.57555182 280.97070312 705.54736328 C279.22325472 705.94872222 277.47858899 706.36215406 275.734375 706.77734375 C261.01701425 710.26799983 246.29302483 713.29428013 231.23095703 714.7734375 C228.86836986 715.01336756 226.51099945 715.28671012 224.15234375 715.5625 C183.40663637 720.14150416 137.74273287 716.93280252 103.91796875 691.39453125 C101.08977165 689.07366803 98.56114501 686.60841446 96 684 C94.86572878 683.06906466 93.72123047 682.15030856 92.5625 681.25 C88.43684133 677.76112778 85.76833787 673.59770734 83 669 C82.64164063 668.4121875 82.28328125 667.824375 81.9140625 667.21875 C80.90017578 665.49919811 79.94244721 663.75972564 79 662 C78.5875 661.23945312 78.175 660.47890625 77.75 659.6953125 C74.73214898 653.92906145 72.62212405 648.29384132 71 642 C70.74347656 641.09378906 70.48695313 640.18757812 70.22265625 639.25390625 C65.23789622 620.18285916 64.66748005 599.34966887 67.44921875 579.921875 C67.7892336 577.50077634 68.09156005 575.07362776 68.33203125 572.640625 C70.97503507 547.43043475 79.42408882 522.24352966 89.18896484 498.94140625 C90.07098284 496.83008562 90.93594539 494.71216338 91.80078125 492.59375 C96.76817895 480.51707235 102.28264022 468.73762604 108 457 C108.56847656 455.82179688 109.13695312 454.64359375 109.72265625 453.4296875 C112.65704986 447.43569948 115.89621409 441.69491456 119.30859375 435.9609375 C120.87059347 433.22653614 122.22730557 430.47504805 123.5625 427.625 C128.02209798 418.51399337 133.78711848 410.12815163 139.29638672 401.62890625 C141.27043774 398.5826779 143.2310575 395.52800416 145.19018555 392.47216797 C146.78944868 389.97885973 148.39434258 387.48919378 150 385 C148.96746094 384.6596875 148.96746094 384.6596875 147.9140625 384.3125 C144.32209102 382.69466834 141.43029686 380.44144726 138.375 378 C133.78052804 374.37506013 133.78052804 374.37506013 129 371 C128.34 372.65 127.68 374.3 127 376 C126.34 376 125.68 376 125 376 C125 376.99 125 377.98 125 379 C124.34 379 123.68 379 123 379 C122.8875293 379.7312207 122.77505859 380.46244141 122.65917969 381.21582031 C121.97370917 384.11104469 121.00953584 386.02538173 119.453125 388.546875 C118.9375 389.3925 118.421875 390.238125 117.890625 391.109375 C117.34921875 391.98078125 116.8078125 392.8521875 116.25 393.75 C111.26003039 401.87093093 106.40707414 410.00862009 102.1875 418.5625 C101.68863281 419.56925781 101.18976563 420.57601563 100.67578125 421.61328125 C100.12277344 422.73089844 99.56976563 423.84851563 99 425 C97.62745403 427.75122851 96.25115488 430.50057526 94.875 433.25 C93.90388962 435.19197973 92.93296902 437.1340437 91.96411133 439.07714844 C91.32906015 440.34371291 90.68839923 441.60748258 90.04174805 442.86816406 C87.14041682 448.55898547 84.59083121 454.38550257 82.0625 460.25 C81.62083496 461.27125977 81.17916992 462.29251953 80.72412109 463.34472656 C79.47917292 466.22829696 78.23832881 469.11358167 77 472 C76.70883301 472.67804688 76.41766602 473.35609375 76.11767578 474.0546875 C51.52239252 531.53579895 31.74916639 607.47140191 55.88671875 668.4609375 C58.17553603 673.68104709 60.54631194 678.85543404 63 684 C62.34 684.66 61.68 685.32 61 686 C2.66690861 609.87973491 -38.65001923 521.15484742 -65.8125 383.6875 C-65.99522461 382.4185791 -66.17794922 381.1496582 -66.36621094 379.84228516 C-69.93301332 353.13741813 -71.51414621 326.44753534 -71.39111328 299.52050781 C-71.37402272 295.75346405 -71.38423027 291.98705685 -71.40142918 288.2200346 C-71.51160074 259.70093653 -69.50026519 231.40989591 -65.3125 203.1875 C-65.18783356 202.33076691 -65.06316711 201.47403381 -64.9347229 200.59133911 C-54.67184139 130.54025029 -32.33638529 62.91429646 0 0 Z " fill="#FEFEFE" transform="translate(71,345)"/>
<path d="M0 0 C0.33 0.66 0.66 1.32 1 2 C1.99 2.33 2.98 2.66 4 3 C4 3.66 4 4.32 4 5 C4.99 5.33 5.98 5.66 7 6 C7 6.66 7 7.32 7 8 C7.5775 8.2475 8.155 8.495 8.75 8.75 C11.32939979 10.18299988 13.06121592 11.78424676 15 14 C15 14.66 15 15.32 15 16 C15.99 16.33 16.98 16.66 18 17 C18 17.66 18 18.32 18 19 C18.66 19 19.32 19 20 19 C20 19.66 20 20.32 20 21 C20.66 21 21.32 21 22 21 C23.48046875 22.50390625 23.48046875 22.50390625 25.1875 24.5625 C27.53279758 27.3253868 29.90829405 29.96679757 32.5 32.5 C35.51413582 35.46735323 38.29917333 38.57345292 41.05859375 41.77734375 C43.28804061 44.32976883 45.58001382 46.81887514 47.875 49.3125 C51.97199927 53.80498638 55.86120426 58.41907282 59.67578125 63.15234375 C61.6726002 65.59886646 63.71513743 67.99565509 65.78295898 70.38208008 C73.00773228 78.7555621 79.59370861 87.58991222 86.15087891 96.49072266 C87.33463309 98.09708989 88.52151835 99.70115741 89.71240234 101.30224609 C102.4156178 118.38457891 113.85831607 136.22505284 123.91357422 154.99169922 C124.92081527 156.85362391 125.95562691 158.69611533 127.00390625 160.53515625 C149.19287068 200.29598746 165.44820562 251.83414961 152.8984375 297.25390625 C148.87914989 309.89521407 143.08006575 320.52520262 135 331 C134.46761719 331.763125 133.93523438 332.52625 133.38671875 333.3125 C132.92910156 333.869375 132.47148438 334.42625 132 335 C131.34 335 130.68 335 130 335 C129.75765625 335.57363281 129.5153125 336.14726563 129.265625 336.73828125 C124.12886773 345.91785675 112.8469013 351.76340639 104 357 C103.41621582 357.34949707 102.83243164 357.69899414 102.23095703 358.05908203 C82.93028345 369.45939659 60.65417541 375.21054247 38.75 379.1875 C37.91944092 379.3424292 37.08888184 379.4973584 36.2331543 379.65698242 C17.54251673 382.85179969 -1.45625918 383.40761852 -20.375 383.375 C-21.46796387 383.37512085 -22.56092773 383.3752417 -23.68701172 383.37536621 C-45.30303449 383.34171346 -66.57408728 381.78657816 -88 379 C-88.72241882 378.90616028 -89.44483765 378.81232056 -90.18914795 378.71563721 C-113.7503048 375.6248476 -113.7503048 375.6248476 -117 374 C-116.95359375 374.88558594 -116.9071875 375.77117187 -116.859375 376.68359375 C-116.46610373 390.18122546 -118.8350468 402.89027051 -125 415 C-116.08047786 416.84855061 -107.12497691 417.77870919 -98.0625 418.5625 C-96.96062347 418.65913437 -96.96062347 418.65913437 -95.83648682 418.75772095 C-90.89237636 419.18976901 -85.9468799 419.60092609 -81 420 C-80.05979004 420.07637695 -79.11958008 420.15275391 -78.15087891 420.23144531 C-72.435863 420.66970981 -66.73020675 420.88464471 -61 421 C-60.35691895 421.0133136 -59.71383789 421.0266272 -59.05126953 421.04034424 C-27.4264535 421.66556591 3.95186682 420.58580339 35 414 C36.00289062 413.79004395 37.00578125 413.58008789 38.0390625 413.36376953 C59.13476128 408.85868621 79.02208324 402.3087388 98 392 C99.1653125 391.38640625 100.330625 390.7728125 101.53125 390.140625 C114.6802095 382.97384978 126.90187073 374.1079422 137 363 C137.66 363.33 138.32 363.66 139 364 C132.93608774 374.01005907 126.54984315 383.60546713 119.52001953 392.96044922 C117.88890015 395.14907294 116.28434941 397.35548672 114.68359375 399.56640625 C106.83683622 410.38017402 98.64736044 420.81560516 90 431 C89.44425293 431.65484375 88.88850586 432.3096875 88.31591797 432.984375 C81.28914743 441.23417898 74.08196071 449.30087982 66.67333984 457.20898438 C64.81276035 459.20040708 62.96319937 461.20179653 61.11328125 463.203125 C53.87116882 471.00718518 46.54020596 478.49190988 38.58203125 485.57080078 C36.1464936 487.77105346 33.769777 490.03263968 31.38452148 492.28710938 C25.65870223 497.69199556 19.86569515 502.90209904 13.70703125 507.81640625 C11.30282501 509.7557299 8.95991659 511.75103301 6.62646484 513.77441406 C-61.18926682 572.337734 -146.30761032 613.78344766 -385 659 C-385 658.67 -385 658.34 -385 658 C-383.82566406 657.78085938 -382.65132812 657.56171875 -381.44140625 657.3359375 C-344.79075254 650.23211639 -315.74715431 631.52617152 -289 606 C-288.12730469 605.16855469 -287.25460937 604.33710937 -286.35546875 603.48046875 C-281.33291699 598.58135912 -276.74558749 593.47890828 -272.37890625 587.98828125 C-270.74443607 585.93512906 -269.09693621 583.91919581 -267.40234375 581.91796875 C-252.581756 564.21076012 -240.10535873 544.20423827 -229 524 C-228.46455566 523.03835938 -227.92911133 522.07671875 -227.37744141 521.0859375 C-206.97856672 484.39210374 -191.31449597 445.75093459 -178 406 C-177.7658136 405.30086487 -177.5316272 404.60172974 -177.29034424 403.88140869 C-153.6446997 333.02238493 -138.29857689 258.25286733 -130.59375 183.984375 C-130.48330856 182.92499222 -130.37286713 181.86560944 -130.25907898 180.77412415 C-129.73487153 175.69503354 -129.2350062 170.61512833 -128.77270508 165.5300293 C-128.59473956 163.70620029 -128.41660738 161.88238753 -128.23828125 160.05859375 C-128.17181396 159.241026 -128.10534668 158.42345825 -128.03686523 157.58111572 C-127.3478197 150.75852637 -125.36449367 146.06264342 -120.0625 141.4375 C-118.5465625 140.2309375 -118.5465625 140.2309375 -117 139 C-115.30911778 137.02043058 -113.64169528 135.02054804 -112 133 C-110.33333333 131.33333333 -108.66666667 129.66666667 -107 128 C-105.7625 126.515 -105.7625 126.515 -104.5 125 C-101.46158041 121.3538965 -98.36966792 118.04726232 -94.59375 115.16015625 C-91.97223069 112.97687285 -90.06725311 110.767434 -88 108.0625 C-85.1840784 104.45410515 -82.28378862 101.19503758 -79 98 C-77.2990184 96.02705914 -75.65462928 94.01238696 -74 92 C-73.34 91.34 -72.68 90.68 -72 90 C-69.22945494 86.85741032 -66.52592464 83.66935863 -63.9375 80.375 C-62 78 -62 78 -59.6875 75.75 C-56.77767665 72.77250634 -54.33088517 69.61307258 -51.84375 66.28125 C-50 64 -50 64 -47.57421875 61.61328125 C-43.9075974 57.89102073 -41.02904889 53.68585131 -37.98828125 49.44921875 C-37.00408203 48.23685547 -37.00408203 48.23685547 -36 47 C-35.34 47 -34.68 47 -34 47 C-34 46.01 -34 45.02 -34 44 C-32.35697047 42.31002677 -30.68528688 40.64783606 -29 39 C-27.23711945 36.7326644 -25.62075753 34.37035789 -24 32 C-21.69157515 28.62392865 -19.4914623 25.48592247 -16.57421875 22.6015625 C-13.1746924 19.16592585 -10.55229062 15.34414043 -7.8125 11.375 C-7.01295898 10.2303125 -7.01295898 10.2303125 -6.19726562 9.0625 C-4.10297126 6.05936091 -2.03097505 3.04646258 0 0 Z " fill="#FEFEFE" transform="translate(1041,621)"/>
<path d="M0 0 C1.27586493 4.32348755 0.66578938 8.18348162 0.06640625 12.58203125 C-0.10246597 13.87914787 -0.10246597 13.87914787 -0.27474976 15.20246887 C-0.65273925 18.07385191 -1.04388589 20.94321916 -1.4375 23.8125 C-1.57215668 24.80650818 -1.70681335 25.80051636 -1.84555054 26.824646 C-13.34770804 111.40057171 -31.58269211 196.28592067 -122 377 C-123.15048828 378.46953125 -123.15048828 378.46953125 -124.32421875 379.96875 C-130.19528233 387.30494435 -136.54566357 394.17923927 -143 401 C-143.95712891 402.0209375 -143.95712891 402.0209375 -144.93359375 403.0625 C-166.97349388 425.89520229 -197.04692032 442.40819728 -229.015625 444 C-261.00675628 444 -287.89584843 430.03512277 -312 410 C-312.19980469 410.556875 -312.39960937 411.11375 -312.60546875 411.6875 C-314.54929504 414.91087581 -317.32500845 416.81160442 -320.3125 419 C-321.45472981 419.85376181 -322.59666105 420.70792322 -323.73828125 421.5625 C-324.56126709 422.17351562 -324.56126709 422.17351562 -325.40087891 422.796875 C-327.64053664 424.48191825 -329.82280354 426.23536797 -332 428 C-323.4619297 435.47279896 -314.58239739 441.93906766 -305 448 C-304.00226563 448.639375 -303.00453125 449.27875 -301.9765625 449.9375 C-285.7867803 459.87314716 -266.77248595 466.28346316 -248 469 C-248 469.33 -248 469.66 -248 470 C-325.97106638 472.61517862 -407.67871282 450.9962684 -511 407 C-512.10714355 406.46761719 -513.21428711 405.93523437 -514.35498047 405.38671875 C-529.38597162 398.13691694 -543.91044482 390.25057577 -558.21728516 381.66259766 C-560.84587906 380.09208314 -563.48784179 378.54770839 -566.13671875 377.01171875 C-579.24633439 369.36282927 -591.67059851 360.84311188 -604 352 C-604.86077148 351.38302246 -605.72154297 350.76604492 -606.60839844 350.13037109 C-617.11347414 342.56745264 -627.29961849 334.68475218 -637.26757812 326.42822266 C-639.74310877 324.3873751 -642.24998215 322.38572864 -644.75 320.375 C-649.74651307 316.2876269 -654.48565879 311.95591317 -659.21484375 307.56640625 C-661.52647016 305.43633815 -663.8661298 303.36048242 -666.25 301.3125 C-669.58493288 298.42544034 -672.68676495 295.36013631 -675.75 292.1875 C-677.70571297 290.28611239 -679.70757917 288.51999828 -681.77734375 286.74609375 C-685.98327281 283.09134687 -689.7863632 279.15430132 -693.5625 275.0625 C-694.18318359 274.39798828 -694.80386719 273.73347656 -695.44335938 273.04882812 C-699.72360258 268.44723194 -703.88651809 263.75094902 -708 259 C-707.01 259 -706.02 259 -705 259 C-705 259.66 -705 260.32 -705 261 C-704.01 261 -703.02 261 -702 261 C-700.66666667 262.33333333 -699.33333333 263.66666667 -698 265 C-696.78942025 265.73965092 -695.55871076 266.44710212 -694.3125 267.125 C-691 269 -691 269 -690 271 C-688.40422503 271.41628912 -686.80815659 271.83147402 -685.2109375 272.2421875 C-682.51922794 273.1647876 -680.22137064 274.46582304 -677.75 275.875 C-672.31682072 278.91964457 -666.91211147 281.0744268 -661 283 C-659.75992188 283.4125 -658.51984375 283.825 -657.2421875 284.25 C-603.69693115 301.76095783 -543.48348956 296.2934111 -489.5 283.3125 C-488.4277417 283.05484863 -487.3554834 282.79719727 -486.25073242 282.53173828 C-469.38873624 278.43708415 -452.67401119 273.79584873 -436 269 C-435.68361572 269.71841064 -435.36723145 270.43682129 -435.04125977 271.17700195 C-428.55755108 285.88114794 -421.98240592 300.52385034 -415 315 C-411.66564739 315 -409.49822302 312.33692826 -407 310.3125 C-393.96841931 300 -393.96841931 300 -388 300 C-388.8353125 298.29070312 -388.8353125 298.29070312 -389.6875 296.546875 C-393.9182898 287.80367791 -397.93846466 279.01371131 -401.5625 270 C-401.90861328 269.14631836 -402.25472656 268.29263672 -402.61132812 267.41308594 C-403.0840918 266.2186084 -403.0840918 266.2186084 -403.56640625 265 C-403.84427979 264.29875 -404.12215332 263.5975 -404.40844727 262.875 C-405 261 -405 261 -405 258 C-403.96101563 257.61328125 -402.92203125 257.2265625 -401.8515625 256.828125 C-394.19752228 253.97315604 -386.56154459 251.09335915 -379 248 C-378.37480469 247.74605469 -377.74960937 247.49210937 -377.10546875 247.23046875 C-369.29275846 244.05610223 -361.51161704 240.85254517 -353.859375 237.3046875 C-351.00604758 236.00275941 -348.13334068 234.75646494 -345.25292969 233.51611328 C-338.30447048 230.51825559 -331.5121119 227.3176677 -324.765625 223.8828125 C-320.36774952 221.66010246 -315.90009169 219.58873228 -311.4375 217.5 C-304.83680269 214.40105959 -298.38761258 211.14470489 -292 207.625 C-288.88971404 205.94026177 -285.73850097 204.36936322 -282.5625 202.8125 C-278.45747268 200.78426048 -274.75990782 198.59612683 -271 196 C-269.00892752 194.98234073 -267.00781177 193.98422146 -265 193 C-257.89510088 189.18519389 -250.95664232 185.0762258 -244 181 C-241.95843662 179.81232244 -239.91677127 178.62482014 -237.875 177.4375 C-228.06307541 171.72217297 -228.06307541 171.72217297 -218.44140625 165.6953125 C-217.82056152 165.2916748 -217.1997168 164.88803711 -216.56005859 164.47216797 C-215.3401491 163.67596628 -214.12287766 162.87570328 -212.90869141 162.07080078 C-206.35145844 157.78359534 -206.35145844 157.78359534 -203 157 C-200.046875 157.90625 -200.046875 157.90625 -196.75 159.5 C-195.51013649 160.0766381 -194.26782747 160.64803988 -193.0234375 161.21484375 C-192.04455566 161.66126221 -192.04455566 161.66126221 -191.04589844 162.11669922 C-186.91821574 163.89879421 -182.6483927 165.29762021 -178.38964844 166.73046875 C-174.27751559 168.13411979 -170.2779559 169.70451818 -166.27734375 171.40234375 C-160.0023643 174.0462347 -153.63189035 176.30737062 -147.1875 178.5 C-146.04313477 178.8923584 -144.89876953 179.2847168 -143.71972656 179.68896484 C-140.48139614 180.79734659 -137.24115611 181.89991317 -134 183 C-133.24219238 183.25813477 -132.48438477 183.51626953 -131.70361328 183.78222656 C-116.90210487 188.81614803 -101.98785747 193.55272037 -87 198 C-87.04640625 197.25878906 -87.0928125 196.51757812 -87.140625 195.75390625 C-87.66894474 180.33829087 -83.50517536 167.3027125 -76 154 C-80.90017559 151.82072815 -85.82880663 150.00957224 -90.9375 148.375 C-99.48921963 145.58704367 -107.89008681 142.44934434 -116.29760742 139.25634766 C-121.9135515 137.13183434 -127.53622516 135.09505736 -133.25 133.25 C-150.30769231 127.69230769 -150.30769231 127.69230769 -154 124 C-150.44219944 120.93863673 -147.02685085 118.41611051 -143 116 C-141.515 114.7625 -141.515 114.7625 -140 113.5 C-137.39698589 111.33082157 -134.88909896 109.73345938 -132 108 C-130.515 106.7625 -130.515 106.7625 -129 105.5 C-126 103 -126 103 -123.62109375 101.58984375 C-120.89312779 99.93517587 -118.5246105 98.08897642 -116.0625 96.0625 C-113.45528981 93.91805929 -110.88238098 91.9224215 -108.0625 90.0625 C-103.72809163 87.14340865 -99.86832084 83.73414847 -95.90234375 80.33984375 C-93 78 -93 78 -90.50390625 76.50390625 C-87.39633336 74.63742331 -84.73107064 72.36414817 -82 70 C-80.84641018 69.01295537 -79.69276269 68.02597812 -78.5390625 67.0390625 C-77.95286133 66.53536133 -77.36666016 66.03166016 -76.76269531 65.51269531 C-73.97666803 63.12180542 -71.17680166 60.74736821 -68.375 58.375 C-67.83351318 57.91601318 -67.29202637 57.45702637 -66.73413086 56.98413086 C-63.37223311 54.14077254 -59.97977004 51.33934462 -56.5625 48.5625 C-52.31607618 45.10725849 -48.14703706 41.57302166 -44 38 C-38.99391517 33.68683635 -33.92749223 29.46269368 -28.80078125 25.29296875 C-25.55510262 22.63576742 -22.33422279 19.95104669 -19.125 17.25 C-18.58931396 16.80197021 -18.05362793 16.35394043 -17.50170898 15.89233398 C-14.16603243 13.07571486 -11.07038747 10.10053857 -8 7 C-6.575447 5.71467033 -5.13906571 4.44224324 -3.6875 3.1875 C-2.99011719 2.58292969 -2.29273438 1.97835937 -1.57421875 1.35546875 C-1.05472656 0.90816406 -0.53523437 0.46085938 0 0 Z " fill="#FEFEFE" transform="translate(872,810)"/>
<path d="M0 0 C77.97106638 -2.61517862 159.67871282 19.0037316 263 63 C264.10714355 63.53238281 265.21428711 64.06476563 266.35498047 64.61328125 C281.38597162 71.86308306 295.91044482 79.74942423 310.21728516 88.33740234 C312.84587906 89.90791686 315.48784179 91.45229161 318.13671875 92.98828125 C331.24633439 100.63717073 343.67059851 109.15688812 356 118 C356.86077148 118.61697754 357.72154297 119.23395508 358.60839844 119.86962891 C369.11347414 127.43254736 379.29961849 135.31524782 389.26757812 143.57177734 C391.74310877 145.6126249 394.24998215 147.61427136 396.75 149.625 C401.74651307 153.7123731 406.48565879 158.04408683 411.21484375 162.43359375 C413.52647016 164.56366185 415.8661298 166.63951758 418.25 168.6875 C421.58493288 171.57455966 424.68676495 174.63986369 427.75 177.8125 C429.70571297 179.71388761 431.70757917 181.48000172 433.77734375 183.25390625 C437.98327281 186.90865313 441.7863632 190.84569868 445.5625 194.9375 C446.18318359 195.60201172 446.80386719 196.26652344 447.44335938 196.95117188 C451.72360258 201.55276806 455.88651809 206.24905098 460 211 C459.01 211 458.02 211 457 211 C457 210.34 457 209.68 457 209 C456.01 209 455.02 209 454 209 C452.66666667 207.66666667 451.33333333 206.33333333 450 205 C448.78942025 204.26034908 447.55871076 203.55289788 446.3125 202.875 C443 201 443 201 442 199 C440.40422503 198.58371088 438.80815659 198.16852598 437.2109375 197.7578125 C434.51922794 196.8352124 432.22137064 195.53417696 429.75 194.125 C424.31682072 191.08035543 418.91211147 188.9255732 413 187 C411.75992188 186.5875 410.51984375 186.175 409.2421875 185.75 C337.61591781 162.3259906 255.60699775 179.04070861 186 202 C185.16597656 202.27344238 184.33195312 202.54688477 183.47265625 202.82861328 C173.59580211 206.0718916 163.72698495 209.32756691 154 213 C153.236875 213.28488281 152.47375 213.56976563 151.6875 213.86328125 C137.85625679 219.00901612 137.85625679 219.00901612 124.33984375 224.91796875 C121.07024136 226.42995516 117.72584323 227.72748048 114.375 229.046875 C111.43406466 230.22711879 108.54801309 231.50863518 105.66015625 232.8125 C102.91005341 234.04015237 100.14450536 235.2296573 97.37817383 236.42016602 C90.38859582 239.43953815 83.553168 242.6614293 76.765625 246.1171875 C72.36774952 248.33989754 67.90009169 250.41126772 63.4375 252.5 C56.83680269 255.59894041 50.38761258 258.85529511 44 262.375 C40.88971404 264.05973823 37.73850097 265.63063678 34.5625 267.1875 C30.45747268 269.21573952 26.75990782 271.40387317 23 274 C21.00892752 275.01765927 19.00781177 276.01577854 17 277 C9.89510088 280.81480611 2.95664232 284.9237742 -4 289 C-6.04156338 290.18767756 -8.08322873 291.37517986 -10.125 292.5625 C-19.93692459 298.27782703 -19.93692459 298.27782703 -29.55859375 304.3046875 C-30.17943848 304.7083252 -30.8002832 305.11196289 -31.43994141 305.52783203 C-32.6598509 306.32403372 -33.87712234 307.12429672 -35.09130859 307.92919922 C-41.64854156 312.21640466 -41.64854156 312.21640466 -45 313 C-47.953125 312.09375 -47.953125 312.09375 -51.25 310.5 C-52.48986351 309.9233619 -53.73217253 309.35196012 -54.9765625 308.78515625 C-55.95544434 308.33873779 -55.95544434 308.33873779 -56.95410156 307.88330078 C-61.08178426 306.10120579 -65.3516073 304.70237979 -69.61035156 303.26953125 C-73.72248441 301.86588021 -77.7220441 300.29548182 -81.72265625 298.59765625 C-87.9976357 295.9537653 -94.36810965 293.69262938 -100.8125 291.5 C-101.95686523 291.1076416 -103.10123047 290.7152832 -104.28027344 290.31103516 C-107.51860386 289.20265341 -110.75884389 288.10008683 -114 287 C-114.75780762 286.74186523 -115.51561523 286.48373047 -116.29638672 286.21777344 C-120.52106004 284.78098246 -124.75751507 283.38322686 -129 282 C-129.72316406 281.7613623 -130.44632813 281.52272461 -131.19140625 281.27685547 C-143.60797049 277.18828747 -156.12010268 273.46720461 -168.6875 269.875 C-169.44508606 269.65815552 -170.20267212 269.44131104 -170.98321533 269.21789551 C-178.1128262 267.18108224 -185.24130927 265.16137903 -192.43359375 263.35546875 C-193.33311768 263.12939941 -194.2326416 262.90333008 -195.15942383 262.67041016 C-196.7486535 262.27857117 -198.34083284 261.89841874 -199.9362793 261.53271484 C-201.9765625 261.03515625 -201.9765625 261.03515625 -205 260 C-206.33908655 255.98274035 -205.0449232 253.35730424 -203.7109375 249.51953125 C-203.32930954 248.39128685 -203.32930954 248.39128685 -202.93997192 247.24024963 C-202.09608618 244.76036716 -201.23690101 242.28617483 -200.375 239.8125 C-199.93450317 238.53756683 -199.93450317 238.53756683 -199.48510742 237.23687744 C-181.86348706 186.32347593 -159.56531552 135.52842924 -126 93 C-125.23300781 92.0203125 -124.46601562 91.040625 -123.67578125 90.03125 C-117.80471767 82.69505565 -111.45433643 75.82076073 -105 69 C-104.36191406 68.319375 -103.72382812 67.63875 -103.06640625 66.9375 C-81.02650612 44.10479771 -50.95307968 27.59180272 -18.984375 26 C12.40083205 26 40.07736281 39.18092466 63 60 C64.35544922 61.19302734 64.35544922 61.19302734 65.73828125 62.41015625 C74.69630419 70.33508398 82.55680434 78.63558988 90 88 C90.86392072 89.06173742 91.72852306 90.12292052 92.59375 91.18359375 C106.78825236 108.73311352 118.27568215 128.04079792 129.0625 147.8125 C129.94023071 149.41665771 129.94023071 149.41665771 130.83569336 151.05322266 C131.37589111 152.05272949 131.91608887 153.05223633 132.47265625 154.08203125 C132.96000244 154.98155518 133.44734863 155.8810791 133.94946289 156.80786133 C135 159 135 159 135 161 C135.53367187 160.69707031 136.06734375 160.39414063 136.6171875 160.08203125 C140.71046515 157.78044779 144.82612064 155.52736099 149 153.375 C149.7425 152.99085938 150.485 152.60671875 151.25 152.2109375 C155.07582893 150.52626851 159.02073105 149.27115536 163 148 C142.15233183 106.82232585 114.14697839 64.35033263 77 36 C76.4529541 35.57654297 75.9059082 35.15308594 75.34228516 34.71679688 C53.01896034 17.50213863 28.12951617 5.07057793 0 1 C0 0.67 0 0.34 0 0 Z " fill="#FEFEFE" transform="translate(656,0)"/>
<path d="M0 0 C6.76907035 3.82650197 13.3354748 7.77931949 19.6484375 12.32421875 C25.27861222 16.33641967 31.11629095 19.90190421 37.08203125 23.38085938 C40.73717844 25.54418762 44.22113926 27.84635616 47.671875 30.32421875 C53.54461126 34.47765623 59.73308768 37.98070209 66 41.5 C67.86333088 42.55385794 69.7256428 43.60950202 71.5879364 44.66519165 C72.85657835 45.38417805 74.12555128 46.10258074 75.39485168 46.82040405 C81.68402953 50.37890314 87.93560695 54.00147905 94.1875 57.625 C119.38871379 72.18464104 144.73701808 86.26950891 171.078125 98.671875 C175.80545305 100.89978177 180.5056695 103.17807743 185.1875 105.5 C185.85322021 105.82645508 186.51894043 106.15291016 187.20483398 106.48925781 C189.83008811 107.79892104 191.91040321 108.91040321 194 111 C192.27136297 112.10499565 190.54206612 113.20895914 188.8125 114.3125 C187.84957031 114.92738281 186.88664063 115.54226563 185.89453125 116.17578125 C183.28346151 117.82135421 180.65275475 119.4228085 178 121 C177.175 121.495 176.35 121.99 175.5 122.5 C174.675 122.995 173.85 123.49 173 124 C172.23042969 124.46792969 171.46085938 124.93585938 170.66796875 125.41796875 C168.08115013 126.95188023 165.46272931 128.39147601 162.8125 129.8125 C159.16697842 131.78634524 155.59425244 133.82968116 152.0625 136 C147.5587303 138.73772457 142.91554941 141.06025991 138.18359375 143.375 C134.81654786 145.09363937 131.57315053 146.96268262 128.3125 148.875 C122.53397609 152.24922082 116.61011003 155.13782393 110.53076172 157.92700195 C105.39683778 160.29770418 100.40883282 162.86917177 95.4375 165.5625 C88.60172379 169.25590931 81.64350127 172.47013611 74.48828125 175.4921875 C71.2578795 176.88853137 68.14343475 178.42018099 65 180 C62.40989448 181.19906507 59.80165426 182.35444026 57.1875 183.5 C56.135625 183.96128296 56.135625 183.96128296 55.0625 184.43188477 C50.11535383 186.57568621 45.16322572 188.43259219 40 190 C36.39949214 179.54764526 33.1893343 169.04764843 30.3125 158.375 C30.10167786 157.59465393 29.89085571 156.81430786 29.67364502 156.01031494 C16.96144833 108.70617291 8.26082197 60.50480477 1.25 12.0625 C1.12231735 11.18653168 0.9946347 10.31056335 0.86308289 9.40805054 C0.74842178 8.60437042 0.63376068 7.80069031 0.515625 6.97265625 C0.41540039 6.27406494 0.31517578 5.57547363 0.21191406 4.85571289 C0 3 0 3 0 0 Z " fill="#FFFFFF" transform="translate(409,828)"/>
<path d="M0 0 C6.01780545 -0.49641829 11.19635871 1.32256577 16.875 3.0625 C19.04674987 3.71395894 21.21862838 4.3649892 23.390625 5.015625 C24.49470703 5.34884766 25.59878906 5.68207031 26.73632812 6.02539062 C29.77109573 6.93164379 32.81198255 7.80917123 35.859375 8.671875 C52.08185492 13.27480747 68.04531046 18.5536657 84 24 C84.98613281 24.33563965 85.97226562 24.6712793 86.98828125 25.01708984 C96.54327677 28.27897941 106.00696797 31.71303203 115.3918457 35.43725586 C119.1688099 36.92906182 122.95496377 38.35129755 126.796875 39.66796875 C127.96440308 40.06810181 127.96440308 40.06810181 129.15551758 40.47631836 C130.63704411 40.97861403 132.12115493 41.47337392 133.6081543 41.95922852 C137.05388117 43.12563527 139.72994196 44.06532421 142 47 C128.419171 57.3563305 128.419171 57.3563305 121.35546875 61.58203125 C118.9006613 62.98895052 118.9006613 62.98895052 116.5 65 C114 67 114 67 111.5625 68.4375 C108.82858054 70.0186084 108.82858054 70.0186084 106 72.5 C103.39698589 74.66917843 100.88909896 76.26654062 98 78 C97.01 78.825 96.02 79.65 95 80.5 C92 83 92 83 89.62109375 84.41015625 C86.89312779 86.06482413 84.5246105 87.91102358 82.0625 89.9375 C79.45528981 92.08194071 76.88238098 94.0775785 74.0625 95.9375 C69.72809163 98.85659135 65.86832084 102.26585153 61.90234375 105.66015625 C59 108 59 108 56.50390625 109.49609375 C53.39633336 111.36257669 50.73107064 113.63585183 48 116 C46.84641018 116.98704463 45.69276269 117.97402188 44.5390625 118.9609375 C43.95286133 119.46463867 43.36666016 119.96833984 42.76269531 120.48730469 C39.97666803 122.87819458 37.17680166 125.25263179 34.375 127.625 C33.83351318 128.08398682 33.29202637 128.54297363 32.73413086 129.01586914 C29.37223311 131.85922746 25.97977004 134.66065538 22.5625 137.4375 C18.31607618 140.89274151 14.14703706 144.42697834 10 148 C4.99391517 152.31316365 -0.07250777 156.53730632 -5.19921875 160.70703125 C-8.44489738 163.36423258 -11.66577721 166.04895331 -14.875 168.75 C-15.41068604 169.19802979 -15.94637207 169.64605957 -16.49829102 170.10766602 C-19.83396757 172.92428514 -22.92961253 175.89946143 -26 179 C-27.424553 180.28532967 -28.86093429 181.55775676 -30.3125 182.8125 C-31.00988281 183.41707031 -31.70726562 184.02164063 -32.42578125 184.64453125 C-32.94527344 185.09183594 -33.46476562 185.53914062 -34 186 C-35.27586493 181.67651245 -34.66578938 177.81651838 -34.06640625 173.41796875 C-33.95382477 172.55322433 -33.84124329 171.68847992 -33.72525024 170.79753113 C-33.34726075 167.92614809 -32.95611411 165.05678084 -32.5625 162.1875 C-32.42784332 161.19349182 -32.29318665 160.19948364 -32.15444946 159.175354 C-24.86906418 105.60556032 -15.06391373 51.97831517 0 0 Z " fill="#FFFFFF" transform="translate(442,284)"/>
<path d="M0 0 C11.52750626 11.52750626 18.92426294 25.25619557 19.19311523 41.67822266 C19.15908734 58.77798023 15.36078923 74.26421077 2.8125 86.8125 C-13.59052794 100.61776333 -29.185062 104.35871602 -50.1875 102.8125 C-66.01411449 100.16680969 -78.79504948 90.71835812 -88.0703125 78.0078125 C-97.6857834 63.49590254 -99.36746847 46.85314973 -96.53515625 29.91015625 C-92.1004707 14.20794347 -82.6036619 2.70193735 -69.1875 -6.1875 C-45.90917375 -18.96896826 -21.16338963 -14.52389485 0 0 Z " fill="#48906C" transform="translate(551.1875,1133.1875)"/>
<path d="M0 0 C11.52750626 11.52750626 18.92426294 25.25619557 19.19311523 41.67822266 C19.15908734 58.77798023 15.36078923 74.26421077 2.8125 86.8125 C-13.59052794 100.61776333 -29.185062 104.35871602 -50.1875 102.8125 C-66.01411449 100.16680969 -78.79504948 90.71835812 -88.0703125 78.0078125 C-97.6857834 63.49590254 -99.36746847 46.85314973 -96.53515625 29.91015625 C-92.1004707 14.20794347 -82.6036619 2.70193735 -69.1875 -6.1875 C-45.90917375 -18.96896826 -21.16338963 -14.52389485 0 0 Z " fill="#89979D" transform="translate(679.1875,595.1875)"/>
<path d="M0 0 C11.52750626 11.52750626 18.92426294 25.25619557 19.19311523 41.67822266 C19.15908734 58.77798023 15.36078923 74.26421077 2.8125 86.8125 C-13.59052794 100.61776333 -29.185062 104.35871602 -50.1875 102.8125 C-66.01411449 100.16680969 -78.79504948 90.71835812 -88.0703125 78.0078125 C-97.6857834 63.49590254 -99.36746847 46.85314973 -96.53515625 29.91015625 C-92.1004707 14.20794347 -82.6036619 2.70193735 -69.1875 -6.1875 C-45.90917375 -18.96896826 -21.16338963 -14.52389485 0 0 Z " fill="#FD5153" transform="translate(1179.1875,321.1875)"/>
<path d="M0 0 C11.52750626 11.52750626 18.92426294 25.25619557 19.19311523 41.67822266 C19.15908734 58.77798023 15.36078923 74.26421077 2.8125 86.8125 C-13.59052794 100.61776333 -29.185062 104.35871602 -50.1875 102.8125 C-66.01411449 100.16680969 -78.79504948 90.71835812 -88.0703125 78.0078125 C-97.6857834 63.49590254 -99.36746847 46.85314973 -96.53515625 29.91015625 C-92.1004707 14.20794347 -82.6036619 2.70193735 -69.1875 -6.1875 C-45.90917375 -18.96896826 -21.16338963 -14.52389485 0 0 Z " fill="#46A2CB" transform="translate(287.1875,207.1875)"/>
<path d="M0 0 C3.16609913 1.05536638 3.76033722 1.7078861 6 4 C7.8780264 5.4606872 9.77624085 6.8955742 11.6875 8.3125 C12.22060791 8.70912842 12.75371582 9.10575684 13.30297852 9.5144043 C14.8672711 10.67812852 16.43359964 11.83911445 18 13 C19.48014582 14.10285375 20.95947676 15.20680323 22.4375 16.3125 C23.01371094 16.74175781 23.58992187 17.17101562 24.18359375 17.61328125 C26.48633051 19.37128458 28.73838693 21.18939274 31 23 C32.58521328 24.23494519 34.17047076 25.46983421 35.7565918 26.70361328 C41.71974408 31.35154853 47.5671197 36.10665339 53.31665039 41.01611328 C56.6559926 43.86737825 60.02743027 46.67055746 63.4375 49.4375 C67.85173549 53.03790151 72.22132405 56.68708354 76.5625 60.375 C77.17085693 60.88732178 77.77921387 61.39964355 78.40600586 61.92749023 C81.02676485 64.16499525 83.07646462 66.11469693 85 69 C83.58735645 70.91974636 82.17008929 72.83577306 80.75 74.75 C80.35425781 75.28882813 79.95851563 75.82765625 79.55078125 76.3828125 C77.22282556 79.51219556 74.75403972 82.25142465 72 85 C70.55622884 86.8752742 69.14141324 88.77305552 67.75 90.6875 C64.9704842 94.46876732 62.10809688 98.09798191 58.9375 101.5625 C55.19224709 105.65840408 52.02039947 110.05330074 48.8046875 114.5703125 C46.76039687 117.32258257 44.45311068 119.6097896 42 122 C40.81725242 123.48735311 39.65203249 124.98873157 38.5 126.5 C35.87293539 129.94020365 33.1049617 132.97674782 30 136 C29.175 136.99 28.35 137.98 27.5 139 C25.13028779 141.84365465 22.6154087 144.3845913 20 147 C18.42321 148.86560797 16.86733771 150.74464014 15.33203125 152.64453125 C14.89246094 153.09183594 14.45289063 153.53914062 14 154 C13.34 154 12.68 154 12 154 C11.773125 154.556875 11.54625 155.11375 11.3125 155.6875 C9.64363942 158.6278734 7.41211335 160.6502353 5 163 C4.99413376 161.96733002 4.98826752 160.93466003 4.98222351 159.87069702 C4.66229853 90.87924387 4.66229853 90.87924387 1.34765625 21.98291016 C0.82812485 14.65955693 0.41470481 7.32990759 0 0 Z " fill="#FFFFFF" transform="translate(915,515)"/>
<path d="M0 0 C0.66 0.33 1.32 0.66 2 1 C-10.87 13.87 -23.74 26.74 -37 40 C-37 37 -37 37 -34.40234375 34.14453125 C-33.25474837 33.02625887 -32.09942134 31.91587984 -30.9375 30.8125 C-27.33169404 27.34744881 -23.84133777 23.87409601 -20.58984375 20.0703125 C-16.87456287 15.75959082 -12.80968628 11.91194898 -8.625 8.0625 C-7.90183594 7.39154297 -7.17867187 6.72058594 -6.43359375 6.02929688 C-5.11452279 4.8055059 -3.79390972 3.58337325 -2.47119141 2.36352539 C-1.63519594 1.58871047 -0.80598591 0.80598591 0 0 Z " fill="#C2C2C2" transform="translate(204,170)"/>
<path d="M0 0 C0.99 0.33 1.98 0.66 3 1 C3 1.66 3 2.32 3 3 C3.99 3 4.98 3 6 3 C6.96810726 4.40208637 7.92709811 5.81228096 8.81640625 7.265625 C10.8349176 10.22344362 13.41598176 12.53343714 16 15 C15.67 15.66 15.34 16.32 15 17 C12.86873096 14.92276313 10.74499632 12.83868836 8.625 10.75 C8.02171875 10.16347656 7.4184375 9.57695313 6.796875 8.97265625 C6.21679688 8.39902344 5.63671875 7.82539062 5.0390625 7.234375 C4.50490723 6.71069336 3.97075195 6.18701172 3.42041016 5.64746094 C1.89182628 3.87453484 0.9585213 2.12735107 0 0 Z " fill="#B8B8B8" transform="translate(164,1068)"/>
<path d="M0 0 C3.80172161 1.57373592 6.24341988 3.97621642 9.125 6.875 C9.99382812 7.73867187 10.86265625 8.60234375 11.7578125 9.4921875 C13.68517954 11.64788374 14.90515161 13.35514153 16 16 C15.01 15.67 14.02 15.34 13 15 C13 14.34 13 13.68 13 13 C12.01 13 11.02 13 10 13 C9.02673289 11.62400168 8.06480952 10.23747155 7.18359375 8.80078125 C5.09487528 5.62289605 2.52024991 2.83948156 0 0 Z " fill="#B8B8B8" transform="translate(1100,196)"/>
<path d="M0 0 C1 3 1 3 0.25 5.5625 C-1 8 -1 8 -4 10 C-2.8905928 6.51329166 -1.73662334 3.22515763 0 0 Z " fill="#D4D4D4" transform="translate(71,345)"/>
</svg>
